<?xml version="1.0" encoding="UTF-8"?>
<svg id="Layer_1" xmlns="http://www.w3.org/2000/svg" version="1.1" xmlns:xlink="http://www.w3.org/1999/xlink" viewBox="0 0 1789.5 1377.5">
  <!-- Generator: Adobe Illustrator 29.3.1, SVG Export Plug-In . SVG Version: 2.1.0 Build 151)  -->
  <defs>
    <style>
      .st0, .st1, .st2 {
        fill: #fff;
      }

      .st0, .st3, .st4 {
        stroke: #2ca02c;
      }

      .st5 {
        stroke: #000;
      }

      .st5, .st6, .st7, .st8, .st3, .st9, .st10, .st11, .st12, .st13, .st14, .st15, .st16, .st4 {
        fill: none;
      }

      .st6, .st7, .st3, .st11, .st12, .st16 {
        stroke-dasharray: 4;
      }

      .st6, .st10 {
        stroke: #1f77b4;
      }

      .st17 {
        fill: #7b7b7b;
        font-family: Arial-BoldMT, Arial;
        font-size: 26px;
        font-weight: 700;
      }

      .st17, .st18, .st19, .st20, .st21, .st22 {
        isolation: isolate;
      }

      .st7, .st14 {
        stroke: #d62728;
      }

      .st8, .st1, .st16 {
        stroke: #ff7f0e;
      }

      .st18, .st19, .st22 {
        font-size: 17.2px;
      }

      .st18, .st23 {
        font-family: Roboto-Regular, Roboto;
      }

      .st19, .st24, .st21 {
        font-family: ArialMT, Arial;
      }

      .st21 {
        font-size: 21.7px;
      }

      .st25 {
        fill: #8c564b;
      }

      .st2, .st12, .st13 {
        stroke: #9467bd;
      }

      .st26 {
        fill: #2ca02c;
      }

      .st9 {
        stroke: #fff;
      }

      .st27 {
        fill: #d62728;
      }

      .st11, .st15 {
        stroke: #8c564b;
      }

      .st28 {
        fill: #1f77b4;
      }

      .st29 {
        fill: #9467bd;
      }

      .st30 {
        fill: #ff7f0e;
      }
    </style>
  </defs>
  <g id="viz">
    <g id="y_axis">
      <path class="st5" d="M93.6,1300.8h14.1V86.3h-14.1"/>
      <g>
        <line class="st5" x1="106.7" y1="1300.8" x2="93.6" y2="1300.8"/>
        <text class="st21" transform="translate(57 1307.7)"><tspan x="0" y="0">4.0</tspan></text>
      </g>
      <g>
        <line class="st5" x1="106.7" y1="1219.8" x2="93.6" y2="1219.8"/>
        <text class="st21" transform="translate(57 1226.7)"><tspan x="0" y="0">4.2</tspan></text>
      </g>
      <g>
        <line class="st5" x1="106.7" y1="1138.8" x2="93.6" y2="1138.8"/>
        <text class="st21" transform="translate(57 1145.8)"><tspan x="0" y="0">4.4</tspan></text>
      </g>
      <g>
        <line class="st5" x1="106.7" y1="1057.9" x2="93.6" y2="1057.9"/>
        <text class="st21" transform="translate(57 1064.8)"><tspan x="0" y="0">4.6</tspan></text>
      </g>
      <g>
        <line class="st5" x1="106.7" y1="976.9" x2="93.6" y2="976.9"/>
        <text class="st21" transform="translate(57 983.8)"><tspan x="0" y="0">4.8</tspan></text>
      </g>
      <g>
        <line class="st5" x1="106.7" y1="896" x2="93.6" y2="896"/>
        <text class="st21" transform="translate(57 902.9)"><tspan x="0" y="0">5.0</tspan></text>
      </g>
      <g>
        <line class="st5" x1="106.7" y1="815" x2="93.6" y2="815"/>
        <text class="st21" transform="translate(57 821.9)"><tspan x="0" y="0">5.2</tspan></text>
      </g>
      <g>
        <line class="st5" x1="106.7" y1="734" x2="93.6" y2="734"/>
        <text class="st21" transform="translate(57 740.9)"><tspan x="0" y="0">5.4</tspan></text>
      </g>
      <g>
        <line class="st5" x1="106.7" y1="653" x2="93.6" y2="653"/>
        <text class="st21" transform="translate(57 660)"><tspan x="0" y="0">5.6</tspan></text>
      </g>
      <g>
        <line class="st5" x1="106.7" y1="572.1" x2="93.6" y2="572.1"/>
        <text class="st21" transform="translate(57 579)"><tspan x="0" y="0">5.8</tspan></text>
      </g>
      <g>
        <line class="st5" x1="106.7" y1="491" x2="93.6" y2="491"/>
        <text class="st21" transform="translate(57 498)"><tspan x="0" y="0">6.0</tspan></text>
      </g>
      <g>
        <line class="st5" x1="106.7" y1="410.1" x2="93.6" y2="410.1"/>
        <text class="st21" transform="translate(57 417.1)"><tspan x="0" y="0">6.2</tspan></text>
      </g>
      <g>
        <line class="st5" x1="106.7" y1="329.2" x2="93.6" y2="329.2"/>
        <text class="st21" transform="translate(57 336.1)"><tspan x="0" y="0">6.4</tspan></text>
      </g>
      <g>
        <line class="st5" x1="106.7" y1="248.2" x2="93.6" y2="248.2"/>
        <text class="st21" transform="translate(57 255.1)"><tspan x="0" y="0">6.6</tspan></text>
      </g>
      <g>
        <line class="st5" x1="106.7" y1="167.2" x2="93.6" y2="167.2"/>
        <text class="st21" transform="translate(57 174.1)"><tspan x="0" y="0">6.8</tspan></text>
      </g>
      <g>
        <line class="st5" x1="106.7" y1="86.3" x2="93.6" y2="86.3"/>
        <text class="st21" transform="translate(57 93.2)"><tspan x="0" y="0">7.0</tspan></text>
      </g>
      <text class="st17" transform="translate(30.8 52.7)"><tspan x="0" y="0">nota_proyecto</tspan></text>
    </g>
    <g id="x_axis">
      <path class="st5" d="M107.7,1312.7v-11.9h1615.8v11.9"/>
      <g>
        <line class="st5" x1="244.4" y1="1299.7" x2="244.4" y2="1312.7"/>
        <g class="st20">
          <text class="st18" transform="translate(171.6 1328.7)"><tspan x="0" y="0">Diseñadora con mención en</tspan></text>
          <text class="st22" transform="translate(171.6 1349.4)"><tspan class="st24" x="0" y="0" xml:space="preserve">      </tspan><tspan class="st23" x="28.8" y="0">Visualidad y Medios</tspan></text>
        </g>
      </g>
      <g>
        <line class="st5" x1="513.3" y1="1299.7" x2="513.3" y2="1312.7"/>
        <text class="st18" transform="translate(481 1334.6)"><tspan x="0" y="0">Diseñadora</tspan></text>
      </g>
      <g>
        <line class="st5" x1="782.2" y1="1299.7" x2="782.2" y2="1312.7"/>
        <g class="st20">
          <text class="st18" transform="translate(672.9 1328.9)"><tspan x="0" y="0">Diseñador con mención </tspan></text>
          <text class="st18" transform="translate(672.9 1349.6)"><tspan x="0" y="0">Industrial y Servicios</tspan></text>
        </g>
      </g>
      <g>
        <line class="st5" x1="1051.2" y1="1299.7" x2="1051.2" y2="1312.7"/>
        <g class="st20">
          <text class="st18" transform="translate(961.8 1328.7)"><tspan x="0" y="0">Diseñadora con mención </tspan></text>
          <text class="st18" transform="translate(961.8 1349.4)"><tspan x="0" y="0">Industrial y Servicios</tspan></text>
        </g>
      </g>
      <g>
        <line class="st5" x1="1320.1" y1="1299.7" x2="1320.1" y2="1312.7"/>
        <g class="st20">
          <text class="st19" transform="translate(1240.1 1329.1)"><tspan x="0" y="0">Diseñador con mención </tspan></text>
          <text class="st19" transform="translate(1240.1 1349.8)"><tspan x="0" y="0">en Visualidad y Medios</tspan></text>
        </g>
      </g>
      <g>
        <line class="st5" x1="1589" y1="1299.7" x2="1589" y2="1312.7"/>
        <text class="st21" transform="translate(1539.6 1334.6)"><tspan x="0" y="0">Diseñador</tspan></text>
      </g>
    </g>
    <g id="boxplots">
      <g>
        <line class="st16" x1="243.3" y1="85.2" x2="243.3" y2="1249.1"/>
        <line class="st8" x1="221.6" y1="85.2" x2="265" y2="85.2"/>
        <line class="st8" x1="221.6" y1="1249.1" x2="265" y2="1249.1"/>
        <rect class="st30" x="221.6" y="287.6" width="43.4" height="384.6"/>
        <line class="st9" x1="221.6" y1="490" x2="265" y2="490"/>
        <circle class="st1" cx="243.3" cy="1299.7" r="2.2"/>
        <circle class="st1" cx="243.3" cy="1299.7" r="2.2"/>
      </g>
      <g>
        <line class="st7" x1="512.2" y1="85.2" x2="512.2" y2="1097.3"/>
        <line class="st14" x1="490.5" y1="85.2" x2="533.9" y2="85.2"/>
        <line class="st14" x1="490.5" y1="1097.3" x2="533.9" y2="1097.3"/>
        <rect class="st27" x="490.5" y="226.9" width="43.4" height="404.8"/>
        <line class="st9" x1="490.5" y1="490" x2="533.9" y2="490"/>
      </g>
      <g>
        <line class="st3" x1="781.2" y1="176.3" x2="781.2" y2="905"/>
        <line class="st4" x1="759.4" y1="176.3" x2="802.9" y2="176.3"/>
        <line class="st4" x1="759.4" y1="905" x2="802.9" y2="905"/>
        <rect class="st26" x="759.4" y="449.6" width="43.4" height="182.1"/>
        <line class="st9" x1="759.4" y1="530.5" x2="802.9" y2="530.5"/>
        <circle class="st0" cx="781.2" cy="1097.3" r="2.2"/>
        <circle class="st0" cx="781.2" cy="166.2" r="2.2"/>
      </g>
      <g>
        <line class="st11" x1="1050.1" y1="85.2" x2="1050.1" y2="1299.7"/>
        <line class="st15" x1="1028.4" y1="85.2" x2="1071.8" y2="85.2"/>
        <line class="st15" x1="1028.4" y1="1299.7" x2="1071.8" y2="1299.7"/>
        <rect class="st25" x="1028.4" y="226.9" width="43.4" height="465.6"/>
        <line class="st9" x1="1028.4" y1="490" x2="1071.8" y2="490"/>
      </g>
      <g>
        <line class="st12" x1="1319" y1="287.6" x2="1319" y2="996.1"/>
        <line class="st13" x1="1297.3" y1="287.6" x2="1340.7" y2="287.6"/>
        <line class="st13" x1="1297.3" y1="996.1" x2="1340.7" y2="996.1"/>
        <rect class="st29" x="1297.3" y="490" width="43.4" height="202.4"/>
        <line class="st9" x1="1297.3" y1="571" x2="1340.7" y2="571"/>
        <circle class="st2" cx="1319" cy="1097.3" r="2.2"/>
        <circle class="st2" cx="1319" cy="1097.3" r="2.2"/>
        <circle class="st2" cx="1319" cy="1299.7" r="2.2"/>
      </g>
      <g>
        <line class="st6" x1="1588" y1="85.2" x2="1588" y2="1016.3"/>
        <line class="st10" x1="1566.2" y1="85.2" x2="1609.7" y2="85.2"/>
        <line class="st10" x1="1566.2" y1="1016.3" x2="1609.7" y2="1016.3"/>
        <rect class="st28" x="1566.2" y="409.1" width="43.4" height="283.4"/>
        <line class="st9" x1="1566.2" y1="490" x2="1609.7" y2="490"/>
      </g>
    </g>
    <g id="boxplots1" data-name="boxplots">
      <g>
        <text class="st21" transform="translate(273.6 85.2)"><tspan x="0" y="0">7</tspan></text>
        <text class="st21" transform="translate(273.6 1249.1)"><tspan x="0" y="0">4.125</tspan></text>
        <text class="st21" transform="translate(273.6 490)"><tspan x="0" y="0">6</tspan></text>
        <text class="st21" transform="translate(170.7 672.2)"><tspan x="0" y="0">5.55</tspan></text>
        <text class="st21" transform="translate(204.5 280.6)"><tspan x="0" y="0">6.5</tspan></text>
      </g>
      <g>
        <text class="st21" transform="translate(542.6 85.2)"><tspan x="0" y="0">7</tspan></text>
        <text class="st21" transform="translate(542.6 1097.3)"><tspan x="0" y="0">4.5</tspan></text>
        <text class="st21" transform="translate(542.6 490)"><tspan x="0" y="0">6</tspan></text>
        <text class="st21" transform="translate(439.6 631.7)"><tspan x="0" y="0">5.65</tspan></text>
        <text class="st21" transform="translate(461.3 219.8)"><tspan x="0" y="0">6.65</tspan></text>
      </g>
      <g>
        <text class="st21" transform="translate(811.5 176.2)"><tspan x="0" y="0">6.8</tspan></text>
        <text class="st21" transform="translate(811.5 905)"><tspan x="0" y="0">5</tspan></text>
        <text class="st21" transform="translate(811.5 530.5)"><tspan x="0" y="0">5.9</tspan></text>
        <text class="st21" transform="translate(708.6 631.7)"><tspan x="0" y="0">5.65</tspan></text>
        <text class="st21" transform="translate(742.3 442.5)"><tspan x="0" y="0">6.1</tspan></text>
      </g>
      <g>
        <text class="st21" transform="translate(1080.4 85.2)"><tspan x="0" y="0">7</tspan></text>
        <text class="st21" transform="translate(1080.4 1299.7)"><tspan x="0" y="0">4</tspan></text>
        <text class="st21" transform="translate(1080.4 490)"><tspan x="0" y="0">6</tspan></text>
        <text class="st21" transform="translate(989.6 692.4)"><tspan x="0" y="0">5.5</tspan></text>
        <text class="st21" transform="translate(999.2 219.8)"><tspan x="0" y="0">6.65</tspan></text>
      </g>
      <g>
        <text class="st21" transform="translate(1349.4 287.6)"><tspan x="0" y="0">6.5</tspan></text>
        <text class="st21" transform="translate(1349.4 996.1)"><tspan x="0" y="0">4.75</tspan></text>
        <text class="st21" transform="translate(1349.4 571)"><tspan x="0" y="0">5.8</tspan></text>
        <text class="st21" transform="translate(1258.5 692.4)"><tspan x="0" y="0">5.5</tspan></text>
        <text class="st21" transform="translate(1298.3 483)"><tspan x="0" y="0">6</tspan></text>
      </g>
      <g>
        <text class="st21" transform="translate(1618.3 85.2)"><tspan x="0" y="0">7</tspan></text>
        <text class="st21" transform="translate(1618.3 1016.3)"><tspan x="0" y="0">4.7</tspan></text>
        <text class="st21" transform="translate(1618.3 490)"><tspan x="0" y="0">6</tspan></text>
        <text class="st21" transform="translate(1527.4 692.4)"><tspan x="0" y="0">5.5</tspan></text>
        <text class="st21" transform="translate(1549.1 402)"><tspan x="0" y="0">6.2</tspan></text>
      </g>
    </g>
  </g>
</svg>