<?xml version="1.0" encoding="UTF-8"?>
<svg id="Camada_1" xmlns="http://www.w3.org/2000/svg" version="1.1" xmlns:xlink="http://www.w3.org/1999/xlink" viewBox="0 0 950 720">
  <!-- Generator: Adobe Illustrator 29.3.1, SVG Export Plug-In . SVG Version: 2.1.0 Build 151)  -->
  <defs>
    <style>
      .st0 {
        fill: #14b1a5;
      }

      .st0, .st1, .st2, .st3, .st4 {
        stroke-miterlimit: 10;
      }

      .st0, .st2, .st3 {
        stroke: #151515;
        stroke-width: 3px;
      }

      .st5 {
        fill: #0925ce;
      }

      .st1 {
        stroke: #d6d6d6;
      }

      .st1, .st6, .st4, .st7 {
        fill: none;
      }

      .st8 {
        fill: #7b7b7b;
      }

      .st6, .st4 {
        stroke: #000;
      }

      .st9 {
        font-family: Roboto-Regular, Roboto;
        font-size: 9px;
      }

      .st2 {
        fill: #ff7f0e;
      }

      .st3 {
        fill: #5b4e93;
      }

      .st10 {
        fill: #d80707;
      }

      .st11 {
        isolation: isolate;
      }

      .st4 {
        stroke-width: .2px;
      }

      .st12 {
        fill: #7f05dd;
      }

      .st7 {
        stroke: #696969;
      }
    </style>
  </defs>
  <rect class="st3" x="32.2" y="25.3" width="20" height="20"/>
  <rect class="st12" x="32.2" y="25.3" width="20" height="20"/>
  <rect class="st0" x="543.1" y="25.3" width="20" height="20"/>
  <rect class="st10" x="543.1" y="25.3" width="20" height="20"/>
  <rect class="st2" x="153" y="25.3" width="20" height="20"/>
  <rect class="st5" x="153" y="25.3" width="20" height="20"/>
  <g>
    <path d="M62.7,41.7v-14.3h4.9c1.1,0,2,.1,2.5.2.8.2,1.5.5,2.1,1,.8.6,1.3,1.5,1.7,2.4s.6,2.1.6,3.4,0,2.1-.4,2.9-.6,1.5-1,2.1-.8,1-1.3,1.3-1,.6-1.7.7-1.4.2-2.3.2h-5.1ZM64.6,40h3.1c.9,0,1.7,0,2.2-.3s1-.4,1.3-.7c.4-.4.8-1.1,1-1.8s.4-1.7.4-2.8-.2-2.6-.7-3.5-1.1-1.3-1.8-1.6c-.5-.2-1.3-.3-2.5-.3h-3v11Z"/>
    <path d="M77,29.4v-2h1.8v2h-1.8ZM77,41.7v-10.4h1.8v10.4s-1.8,0-1.8,0Z"/>
    <path d="M80.7,38.6l1.7-.3c0,.7.4,1.2.8,1.6s1.1.6,1.9.6,1.4-.2,1.8-.5.6-.7.6-1.2-.2-.7-.5-.9c-.2-.2-.8-.4-1.8-.6-1.3-.3-2.2-.6-2.7-.8s-.9-.6-1.1-1-.4-.9-.4-1.4,0-.9.3-1.3.5-.7.9-1c.3-.2.6-.4,1.1-.5s1-.2,1.5-.2c.8,0,1.5.1,2.1.4s1.1.6,1.4,1,.5.9.6,1.6l-1.7.2c0-.5-.3-1-.7-1.2s-.9-.4-1.6-.4-1.4,0-1.7.4-.5.6-.5.9,0,.4.2.6c0,.2.4.3.7.5.2,0,.7.2,1.6.4,1.2.3,2.1.6,2.6.8s.9.5,1.2.9.4.9.4,1.5-.2,1.1-.5,1.7-.8.9-1.5,1.2-1.4.4-2.2.4c-1.3,0-2.4-.3-3.1-.8s-1.2-1.5-1.4-2.6Z"/>
    <path d="M98.5,38.3l1.8.2c-.3,1.1-.8,1.9-1.6,2.5s-1.8.9-3,.9-2.7-.5-3.6-1.4-1.3-2.2-1.3-3.9.4-3.1,1.3-4.1,2.1-1.4,3.5-1.4,2.5.5,3.4,1.4c.9.9,1.3,2.3,1.3,4v.5h-7.7c0,1.1.4,2,1,2.6s1.3.9,2.2.9,1.2-.2,1.7-.5.7-.9,1-1.7ZM92.7,35.5h5.8c0-.9-.3-1.5-.7-2-.6-.7-1.3-1-2.2-1s-1.5.3-2,.8-.8,1.3-.9,2.2Z"/>
    <path d="M102.5,41.7v-10.4h1.6v1.5c.8-1.1,1.9-1.7,3.3-1.7s1.2.1,1.7.3.9.5,1.2.9.4.8.5,1.3c0,.3,0,.9,0,1.7v6.4h-1.8v-6.3c0-.7,0-1.3-.2-1.6s-.4-.6-.7-.8-.8-.3-1.2-.3c-.7,0-1.4.2-1.9.7s-.8,1.4-.8,2.7v5.7h-1.8ZM103.8,29.8c0-.7.2-1.2.6-1.6s.8-.6,1.4-.6,1,.2,1.7.5c.4.2.7.3.9.3s.4-.1.5-.2.2-.3.2-.7h1.3c0,.7-.2,1.3-.6,1.7s-.8.6-1.4.6-1-.2-1.6-.5-.8-.4-1-.4-.4.1-.5.2c0,.2-.2.4-.2.7h-1.3Z"/>
    <path d="M113,36.5c0-1.9.5-3.3,1.6-4.3.9-.8,2-1.2,3.3-1.2s2.6.5,3.5,1.4,1.4,2.2,1.4,3.9-.2,2.4-.6,3.1-1,1.4-1.7,1.8-1.6.6-2.5.6c-1.5,0-2.6-.5-3.5-1.4s-1.5-2.2-1.5-3.9ZM114.8,36.5c0,1.3.3,2.3.9,3s1.3,1,2.2,1,1.6-.3,2.2-1,.9-1.7.9-3-.3-2.3-.9-2.9-1.3-1-2.2-1-1.6.3-2.2,1-.9,1.6-.9,2.9Z"/>
  </g>
  <g>
    <path d="M182.5,40.6v-14.3h4.9c1.1,0,2,.1,2.5.2.8.2,1.5.5,2.1,1,.8.6,1.3,1.5,1.7,2.4s.6,2.1.6,3.4-.1,2.1-.4,2.9-.6,1.5-1,2.1-.8,1-1.3,1.3-1,.6-1.7.7-1.4.2-2.3.2h-5.1ZM184.4,39h3.1c.9,0,1.7,0,2.2-.3s1-.4,1.3-.7c.4-.4.8-1.1,1-1.8s.4-1.7.4-2.8-.2-2.6-.7-3.5-1.1-1.3-1.8-1.6c-.5-.2-1.3-.3-2.5-.3h-3v11Z"/>
    <path d="M196.7,28.3v-2h1.8v2h-1.8ZM196.7,40.6v-10.3h1.8v10.4h-1.8Z"/>
    <path d="M200.5,37.5l1.7-.3c.1.7.4,1.2.8,1.6s1.1.6,1.9.6,1.4-.2,1.8-.5.6-.7.6-1.2-.2-.7-.5-.9c-.2-.2-.8-.4-1.8-.6-1.3-.3-2.2-.6-2.7-.8s-.9-.6-1.1-1-.4-.9-.4-1.4.1-.9.3-1.3.5-.7.9-1c.3-.2.6-.4,1.1-.5s1-.2,1.5-.2c.8,0,1.5.1,2.1.4s1.1.6,1.4,1,.5.9.6,1.6l-1.7.2c-.1-.5-.3-1-.7-1.2s-.9-.4-1.6-.4-1.4.1-1.7.4-.5.6-.5.9.1.4.2.6c.1.2.4.3.7.5.2,0,.7.2,1.6.4,1.2.3,2.1.6,2.6.8s.9.5,1.2.9.4.9.4,1.5-.2,1.1-.5,1.7-.8.9-1.5,1.2-1.4.4-2.2.4c-1.3,0-2.4-.3-3.1-.8s-1.2-1.5-1.4-2.6Z"/>
    <path d="M218.3,37.3l1.8.2c-.3,1.1-.8,1.9-1.6,2.5s-1.8.9-3,.9-2.7-.5-3.6-1.4-1.3-2.2-1.3-3.9.4-3.1,1.3-4.1,2.1-1.4,3.5-1.4,2.5.5,3.4,1.4,1.3,2.3,1.3,4v.5h-7.7c.1,1.1.4,2,1,2.6s1.3.9,2.2.9,1.2-.2,1.7-.5.7-1,1-1.7ZM212.5,34.5h5.8c-.1-.9-.3-1.5-.7-2-.6-.7-1.3-1-2.2-1s-1.5.3-2,.8-.9,1.3-.9,2.2Z"/>
    <path d="M222.3,40.6v-10.3h1.6v1.5c.8-1.1,1.9-1.7,3.3-1.7s1.2.1,1.7.3.9.5,1.2.9.4.8.5,1.3c.1.3.1.9.1,1.7v6.4h-1.7v-6.3c0-.7-.1-1.3-.2-1.6s-.4-.6-.7-.8-.8-.3-1.2-.3c-.7,0-1.4.2-1.9.7s-1,1.3-1,2.6v5.7h-1.7ZM223.5,28.7c0-.7.2-1.2.6-1.6.4-.4.8-.6,1.4-.6s1,.2,1.7.5c.4.2.7.3.9.3s.4-.1.5-.2.2-.3.2-.7h1.3c0,.7-.2,1.3-.6,1.7s-.8.6-1.4.6-1-.2-1.6-.5c-.4-.2-.8-.4-1-.4s-.4.1-.5.2c-.1.2-.2.4-.2.7h-1.3Z"/>
    <path d="M232.8,35.5c0-1.9.5-3.3,1.6-4.3.9-.8,2-1.2,3.3-1.2s2.6.5,3.5,1.4,1.4,2.2,1.4,3.9-.2,2.4-.6,3.1-1,1.4-1.7,1.8-1.6.6-2.5.6c-1.5,0-2.6-.5-3.5-1.4s-1.5-2.2-1.5-3.9ZM234.6,35.5c0,1.3.3,2.3.9,3s1.3,1,2.2,1,1.6-.3,2.2-1,.9-1.7.9-3-.3-2.3-.9-2.9-1.3-1-2.2-1-1.6.3-2.2,1-.9,1.5-.9,2.9Z"/>
    <path d="M250.1,40.6v-10.3h1.6v1.5c.3-.5.8-.9,1.3-1.2s1.2-.5,1.8-.5,1.4.2,1.9.5.8.8,1,1.3c.8-1.2,1.9-1.8,3.2-1.8s1.8.3,2.4.9.8,1.4.8,2.6v7.1h-1.7v-6.5c0-.7-.1-1.2-.2-1.5s-.3-.6-.6-.7-.7-.3-1.1-.3c-.7,0-1.3.2-1.8.7s-.7,1.3-.7,2.3v6h-1.8v-6.7c0-.8-.1-1.4-.4-1.8s-.8-.6-1.4-.6-1,.1-1.4.4-.7.6-.9,1.1-.3,1.2-.3,2.2v5.4h-1.7Z"/>
    <path d="M273.8,37.3l1.8.2c-.3,1.1-.8,1.9-1.6,2.5s-1.8.9-3,.9-2.7-.5-3.6-1.4-1.3-2.2-1.3-3.9.4-3.1,1.3-4.1,2.1-1.4,3.5-1.4,2.5.5,3.4,1.4,1.3,2.3,1.3,4v.5h-7.6c.1,1.1.4,2,1,2.6s1.3.9,2.2.9,1.2-.2,1.7-.5.7-1,.9-1.7ZM268.1,34.5h5.8c-.1-.9-.3-1.5-.7-2-.6-.7-1.3-1-2.2-1s-1.5.3-2,.8-.9,1.3-.9,2.2Z"/>
    <path d="M277.9,40.6v-10.3h1.6v1.5c.8-1.1,1.9-1.7,3.3-1.7s1.2.1,1.7.3.9.5,1.2.9.4.8.5,1.3c.1.3.1.9.1,1.7v6.4h-1.8v-6.3c0-.7-.1-1.3-.2-1.6s-.4-.6-.7-.8-.8-.3-1.2-.3c-.7,0-1.4.2-1.9.7s-.8,1.4-.8,2.7v5.7h-1.8v-.2Z"/>
    <path d="M295.8,36.8l1.7.2c-.2,1.2-.7,2.1-1.5,2.8s-1.7,1-2.9,1-2.6-.5-3.4-1.4-1.3-2.3-1.3-4,.2-2.1.6-2.9.9-1.5,1.7-1.9,1.6-.6,2.5-.6,2,.3,2.8.9,1.2,1.4,1.4,2.4l-1.7.3c-.2-.7-.5-1.2-.9-1.6s-.9-.5-1.5-.5c-.9,0-1.6.3-2.2,1-.6.7-.8,1.6-.8,3s.3,2.4.8,3,1.2.9,2.1.9,1.3-.2,1.7-.6.7-1.1.9-2Z"/>
    <path d="M299,28.3v-2h1.8v2h-1.8ZM299,40.6v-10.3h1.8v10.4h-1.8Z"/>
    <path d="M302.8,35.5c0-1.9.5-3.3,1.6-4.3.9-.8,2-1.2,3.3-1.2s2.6.5,3.5,1.4,1.4,2.2,1.4,3.9-.2,2.4-.6,3.1-1,1.4-1.7,1.8-1.6.6-2.5.6c-1.5,0-2.6-.5-3.5-1.4s-1.5-2.2-1.5-3.9ZM304.6,35.5c0,1.3.3,2.3.9,3s1.3,1,2.2,1,1.6-.3,2.2-1,.9-1.7.9-3-.3-2.3-.9-2.9-1.3-1-2.2-1-1.6.3-2.2,1-.9,1.5-.9,2.9ZM306.7,29l1.3-2.7h2.3l-2.1,2.7h-1.5Z"/>
    <path d="M314.6,40.6v-10.3h1.6v1.5c.8-1.1,1.9-1.7,3.3-1.7s1.2.1,1.7.3.9.5,1.2.9.4.8.5,1.3c.1.3.1.9.1,1.7v6.4h-1.8v-6.3c0-.7-.1-1.3-.2-1.6s-.4-.6-.7-.8-.8-.3-1.2-.3c-.7,0-1.4.2-1.9.7s-.8,1.4-.8,2.7v5.7h-1.8v-.2Z"/>
    <path d="M331.8,40.6v-14.3h1.9v14.3h-1.9Z"/>
    <path d="M336.8,40.6v-10.3h1.6v1.5c.8-1.1,1.9-1.7,3.3-1.7s1.2.1,1.7.3.9.5,1.2.9.4.8.5,1.3c.1.3.1.9.1,1.7v6.4h-1.8v-6.3c0-.7-.1-1.3-.2-1.6s-.4-.6-.7-.8-.8-.3-1.2-.3c-.7,0-1.4.2-1.9.7s-.8,1.4-.8,2.7v5.7h-1.8v-.2Z"/>
    <path d="M354.6,40.6v-1.3c-.7,1-1.6,1.5-2.9,1.5s-1.6-.2-2.3-.7-1.2-1.1-1.6-1.9-.6-1.8-.6-2.8.2-2,.5-2.8.9-1.5,1.6-1.9,1.5-.7,2.3-.7,1.2.1,1.7.4.9.6,1.2,1v-5.1h1.7v14.3h-1.6ZM349.1,35.5c0,1.3.3,2.3.8,3s1.2,1,2,1,1.4-.3,2-.9.8-1.6.8-2.9-.3-2.5-.8-3.1-1.2-1-2-1-1.4.3-2,1-.8,1.5-.8,2.9Z"/>
    <path d="M365.8,40.6v-1.5c-.8,1.2-1.9,1.8-3.3,1.8s-1.2,0-1.7-.4-.9-.5-1.2-.9-.4-.8-.5-1.3c-.1-.3-.1-.9-.1-1.6v-6.4h1.8v5.7c0,.9,0,1.5.1,1.9.1.5.3.8.7,1.1s.8.4,1.3.4,1,0,1.5-.4.8-.6,1-1.1.3-1.1.3-2v-5.6h1.8v10.4h-1.7Z"/>
    <path d="M369.5,37.5l1.7-.3c.1.7.4,1.2.8,1.6s1.1.6,1.9.6,1.4-.2,1.8-.5.6-.7.6-1.2-.2-.7-.5-.9c-.2-.2-.8-.4-1.8-.6-1.3-.3-2.2-.6-2.7-.8s-.9-.6-1.1-1-.4-.9-.4-1.4.1-.9.3-1.3.5-.7.9-1c.3-.2.6-.4,1.1-.5s1-.2,1.5-.2c.8,0,1.5.1,2.1.4s1.1.6,1.4,1,.5.9.6,1.6l-1.7.2c-.1-.5-.3-1-.7-1.2s-.9-.4-1.6-.4-1.4.1-1.7.4-.5.6-.5.9.1.4.2.6c.1.2.4.3.7.5.2,0,.7.2,1.6.4,1.2.3,2.1.6,2.6.8s.9.5,1.2.9.4.9.4,1.5-.2,1.1-.5,1.7-.8.9-1.5,1.2-1.4.4-2.2.4c-1.3,0-2.4-.3-3.1-.8s-1.2-1.5-1.4-2.6Z"/>
    <path d="M384,39.1l.3,1.6c-.5,0-.9.2-1.3.2-.6,0-1.1,0-1.5-.3s-.6-.5-.7-.8-.2-1-.2-2.1v-6h-1.3v-1.4h1.3v-2.6l1.7-1.1v3.6h1.8v1.4h-1.8v6.1c0,.5,0,.8.1,1s.2.3.3.3.3,0,.6,0h.7Z"/>
    <path d="M385.7,40.6v-10.3h1.6v1.6c.4-.7.8-1.2,1.1-1.5s.7-.4,1.1-.4c.6,0,1.2.2,1.8.6l-.6,1.6c-.4-.3-.9-.4-1.3-.4s-.7.1-1,.3-.5.6-.7,1c-.2.6-.3,1.3-.3,2.1v5.4s-1.7,0-1.7,0Z"/>
    <path d="M392.4,28.3v-2h1.8v2h-1.8ZM392.4,40.6v-10.3h1.8v10.4h-1.8Z"/>
    <path d="M403.6,39.4c-.7.6-1.3.9-1.9,1.2s-1.2.3-1.9.3c-1.1,0-2-.3-2.6-.8s-.9-1.3-.9-2.1.1-1,.3-1.4.5-.8.9-1,.8-.4,1.3-.6c.3,0,.9-.2,1.6-.3,1.4-.2,2.5-.4,3.1-.6v-.5c0-.7-.2-1.2-.5-1.5-.4-.4-1.1-.6-2-.6s-1.4.1-1.8.4-.7.8-.9,1.5l-1.7-.2c.2-.7.4-1.3.8-1.8s.9-.8,1.6-1,1.5-.4,2.4-.4,1.6.1,2.2.3,1,.5,1.2.8.4.7.5,1.2c.1.3.1.8.1,1.6v2.3c0,1.6,0,2.7.1,3.1s.2.8.4,1.2h-1.8c-.3-.2-.5-.6-.5-1.1ZM403.4,35.4c-.6.3-1.6.5-2.9.7-.7,0-1.2.2-1.5.4s-.5.3-.7.6-.2.5-.2.8c0,.5.2.9.5,1.2s.9.5,1.6.5,1.3,0,1.8-.4.9-.7,1.2-1.2c.2-.4.3-1,.3-1.8v-.8h0Z"/>
    <path d="M407.9,40.6v-14.3h1.8v14.3h-1.8Z"/>
    <path d="M417.9,44.6l-.2-1.7c.4,0,.7.2,1,.2s.7,0,.9-.2.4-.3.6-.5c.1-.2.3-.6.5-1.3,0,0,.1-.2.2-.4l-3.9-10.4h1.9l2.2,6c.3.8.5,1.6.8,2.4.2-.8.4-1.6.7-2.4l2.2-6h1.8l-3.9,10.5c-.4,1.1-.8,1.9-1,2.4-.3.6-.7,1-1.1,1.3s-.9.4-1.4.4-.9-.1-1.3-.3Z"/>
    <path d="M433.1,36l1.8-.2c.1.7.3,1.3.6,1.8s.8.8,1.4,1.1,1.4.4,2.2.4,1.4,0,1.9-.3,1-.5,1.2-.9.4-.8.4-1.2-.1-.8-.4-1.2-.7-.6-1.3-.8c-.4,0-1.2-.4-2.5-.7s-2.2-.6-2.8-.9c-.7-.4-1.2-.8-1.5-1.3s-.5-1.1-.5-1.8.2-1.4.6-2,1-1.1,1.8-1.4,1.7-.5,2.6-.5,2,.2,2.8.5,1.4.8,1.9,1.5.7,1.4.7,2.3h-1.8c-.1-.8-.4-1.5-1-2s-1.4-.7-2.5-.7-2,.2-2.5.6-.8.9-.8,1.5.2.9.6,1.3c.4.3,1.3.7,2.9,1s2.6.7,3.2.9c.8.4,1.4.9,1.8,1.5s.6,1.3.6,2-.2,1.5-.7,2.2-1.1,1.2-1.9,1.6-1.7.6-2.8.6-2.4-.2-3.3-.6-1.6-.9-2.1-1.7-.6-1.6-.6-2.6Z"/>
    <path d="M453.9,37.3l1.8.2c-.3,1.1-.8,1.9-1.6,2.5s-1.8.9-3,.9-2.7-.5-3.6-1.4-1.3-2.2-1.3-3.9.4-3.1,1.3-4.1,2.1-1.4,3.5-1.4,2.5.5,3.4,1.4,1.3,2.3,1.3,4v.5h-7.7c.1,1.1.4,2,1,2.6s1.3.9,2.2.9,1.2-.2,1.7-.5.8-1,1-1.7ZM448.2,34.5h5.8c-.1-.9-.3-1.5-.7-2-.6-.7-1.3-1-2.2-1s-1.5.3-2,.8-.9,1.3-.9,2.2Z"/>
    <path d="M457.9,40.6v-10.3h1.6v1.6c.4-.7.8-1.2,1.1-1.5s.7-.4,1.1-.4c.6,0,1.2.2,1.8.6l-.6,1.6c-.4-.3-.9-.4-1.3-.4s-.7.1-1,.3-.5.6-.7,1c-.2.6-.3,1.3-.3,2.1v5.4s-1.7,0-1.7,0Z"/>
    <path d="M467.5,40.6l-3.9-10.4h1.9l2.2,6.2c.2.7.5,1.4.7,2.1.2-.5.4-1.2.7-2l2.3-6.3h1.8l-3.9,10.4h-1.8Z"/>
    <path d="M474.6,28.3v-2h1.8v2h-1.8ZM474.6,40.6v-10.3h1.8v10.4h-1.8Z"/>
    <path d="M485.8,36.8l1.7.2c-.2,1.2-.7,2.1-1.5,2.8s-1.7,1-2.9,1-2.6-.5-3.4-1.4-1.3-2.3-1.3-4,.2-2.1.6-2.9.9-1.5,1.7-1.9,1.6-.6,2.5-.6,2,.3,2.8.9,1.2,1.4,1.4,2.4l-1.7.3c-.2-.7-.5-1.2-.9-1.6s-.9-.5-1.5-.5c-.9,0-1.6.3-2.2,1-.6.7-.8,1.6-.8,3s.3,2.4.8,3,1.2.9,2.1.9,1.3-.2,1.7-.6.8-1.1.9-2Z"/>
    <path d="M489.1,28.3v-2h1.8v2h-1.8ZM489.1,40.6v-10.3h1.8v10.4h-1.8Z"/>
    <path d="M492.9,35.5c0-1.9.5-3.3,1.6-4.3.9-.8,2-1.2,3.3-1.2s2.6.5,3.5,1.4,1.4,2.2,1.4,3.9-.2,2.4-.6,3.1-1,1.4-1.7,1.8-1.6.6-2.5.6c-1.5,0-2.6-.5-3.5-1.4s-1.5-2.2-1.5-3.9ZM494.7,35.5c0,1.3.3,2.3.9,3s1.3,1,2.2,1,1.6-.3,2.2-1,.9-1.7.9-3-.3-2.3-.9-2.9-1.3-1-2.2-1-1.6.3-2.2,1-.9,1.5-.9,2.9Z"/>
    <path d="M503.9,37.5l1.7-.3c.1.7.4,1.2.8,1.6s1.1.6,1.9.6,1.4-.2,1.8-.5.6-.7.6-1.2-.2-.7-.5-.9c-.2-.2-.8-.4-1.8-.6-1.3-.3-2.2-.6-2.7-.8s-.9-.6-1.1-1-.4-.9-.4-1.4.1-.9.3-1.3.5-.7.9-1c.3-.2.6-.4,1.1-.5s1-.2,1.5-.2c.8,0,1.5.1,2.1.4s1.1.6,1.4,1,.5.9.6,1.6l-1.7.2c-.1-.5-.3-1-.7-1.2s-.9-.4-1.6-.4-1.4.1-1.7.4-.5.6-.5.9.1.4.2.6c.1.2.4.3.7.5.2,0,.7.2,1.6.4,1.2.3,2.1.6,2.6.8s.9.5,1.2.9.4.9.4,1.5-.2,1.1-.5,1.7-.8.9-1.5,1.2-1.4.4-2.2.4c-1.3,0-2.4-.3-3.1-.8s-1.2-1.5-1.4-2.6Z"/>
  </g>
  <g>
    <path d="M572.3,40.6v-14.3h4.9c1.1,0,2,.1,2.5.2.8.2,1.5.5,2.1,1,.8.6,1.3,1.5,1.7,2.4.4,1,.6,2.1.6,3.4s0,2.1-.4,2.9-.6,1.5-1,2.1-.8,1-1.3,1.3-1,.6-1.7.7c-.7.2-1.4.2-2.3.2h-5.1ZM574.2,39h3.1c.9,0,1.7,0,2.2-.3s1-.4,1.3-.7c.4-.4.8-1.1,1-1.8.3-.8.4-1.7.4-2.8s-.2-2.6-.7-3.5c-.5-.8-1.1-1.3-1.8-1.6-.5-.2-1.3-.3-2.5-.3h-3v11Z"/>
    <path d="M586.5,28.3v-2h1.8v2h-1.8ZM586.5,40.6v-10.3h1.8v10.4h-1.8Z"/>
    <path d="M590.3,37.5l1.7-.3c0,.7.4,1.2.8,1.6.4.4,1.1.6,1.9.6s1.4-.2,1.8-.5.6-.7.6-1.2-.2-.7-.5-.9c-.2-.2-.8-.4-1.8-.6-1.3-.3-2.2-.6-2.7-.8s-.9-.6-1.1-1c-.3-.4-.4-.9-.4-1.4s0-.9.3-1.3c.2-.4.5-.7.9-1,.3-.2.6-.4,1.1-.5s1-.2,1.5-.2c.8,0,1.5.1,2.1.4s1.1.6,1.4,1,.5.9.6,1.6l-1.7.2c0-.5-.3-1-.7-1.2-.4-.3-.9-.4-1.6-.4s-1.4.1-1.7.4-.5.6-.5.9,0,.4.2.6c0,.2.4.3.7.5.2,0,.7.2,1.6.4,1.2.3,2.1.6,2.6.8s.9.5,1.2.9.4.9.4,1.5-.2,1.1-.5,1.7-.8.9-1.5,1.2-1.4.4-2.2.4c-1.3,0-2.4-.3-3.1-.8-.8-.6-1.2-1.5-1.4-2.6Z"/>
    <path d="M608.1,37.3l1.8.2c-.3,1.1-.8,1.9-1.6,2.5s-1.8.9-3,.9-2.7-.5-3.6-1.4-1.3-2.2-1.3-3.9.4-3.1,1.3-4.1,2.1-1.4,3.5-1.4,2.5.5,3.4,1.4,1.3,2.3,1.3,4v.5h-7.7c0,1.1.4,2,1,2.6s1.3.9,2.2.9,1.2-.2,1.7-.5c.4-.4.7-1,1-1.7ZM602.3,34.5h5.8c0-.9-.3-1.5-.7-2-.6-.7-1.3-1-2.2-1s-1.5.3-2,.8c-.5.5-.8,1.3-.9,2.2Z"/>
    <path d="M612.1,40.6v-10.3h1.6v1.5c.8-1.1,1.9-1.7,3.3-1.7s1.2.1,1.7.3c.5.2.9.5,1.2.9s.4.8.5,1.3c0,.3,0,.9,0,1.7v6.4h-1.8v-6.3c0-.7,0-1.3-.2-1.6s-.4-.6-.7-.8-.8-.3-1.2-.3c-.7,0-1.4.2-1.9.7s-.8,1.4-.8,2.7v5.7h-1.8v-.2ZM613.3,28.7c0-.7.2-1.2.6-1.6.4-.4.8-.6,1.4-.6s1,.2,1.7.5c.4.2.7.3.9.3s.4-.1.5-.2.2-.3.2-.7h1.3c0,.7-.2,1.3-.6,1.7-.4.4-.8.6-1.4.6s-1-.2-1.6-.5c-.4-.2-.8-.4-1-.4s-.4.1-.5.2c0,.2-.2.4-.2.7h-1.3Z"/>
    <path d="M622.6,35.5c0-1.9.5-3.3,1.6-4.3.9-.8,2-1.2,3.3-1.2s2.6.5,3.5,1.4,1.4,2.2,1.4,3.9-.2,2.4-.6,3.1-1,1.4-1.7,1.8c-.8.4-1.6.6-2.5.6-1.5,0-2.6-.5-3.5-1.4-1.1-.9-1.5-2.2-1.5-3.9ZM624.4,35.5c0,1.3.3,2.3.9,3,.6.7,1.3,1,2.2,1s1.6-.3,2.2-1c.6-.7.9-1.7.9-3s-.3-2.3-.9-2.9c-.6-.7-1.3-1-2.2-1s-1.6.3-2.2,1c-.6.5-.9,1.5-.9,2.9Z"/>
    <path d="M639.9,40.6v-10.3h1.6v1.5c.3-.5.8-.9,1.3-1.2.5-.3,1.2-.5,1.8-.5s1.4.2,1.9.5.8.8,1,1.3c.8-1.2,1.9-1.8,3.2-1.8s1.8.3,2.4.9c.6.6.8,1.4.8,2.6v7.1h-1.7v-6.5c0-.7,0-1.2-.2-1.5,0-.3-.3-.6-.6-.7-.3-.2-.7-.3-1.1-.3-.7,0-1.3.2-1.8.7s-.7,1.3-.7,2.3v6h-1.8v-6.7c0-.8,0-1.4-.4-1.8-.3-.4-.8-.6-1.4-.6s-1,.1-1.4.4-.7.6-.9,1.1-.3,1.2-.3,2.2v5.4h-1.7Z"/>
    <path d="M663.7,37.3l1.8.2c-.3,1.1-.8,1.9-1.6,2.5s-1.8.9-3,.9-2.7-.5-3.6-1.4-1.3-2.2-1.3-3.9.4-3.1,1.3-4.1,2.1-1.4,3.5-1.4,2.5.5,3.4,1.4,1.3,2.3,1.3,4v.5h-7.7c0,1.1.4,2,1,2.6s1.3.9,2.2.9,1.2-.2,1.7-.5c.3-.4.7-1,1-1.7ZM657.9,34.5h5.8c0-.9-.3-1.5-.7-2-.6-.7-1.3-1-2.2-1s-1.5.3-2,.8-.8,1.3-.9,2.2Z"/>
    <path d="M667.7,40.6v-10.3h1.6v1.5c.8-1.1,1.9-1.7,3.3-1.7s1.2.1,1.7.3c.5.2.9.5,1.2.9s.4.8.5,1.3c0,.3,0,.9,0,1.7v6.4h-1.8v-6.3c0-.7,0-1.3-.2-1.6s-.4-.6-.7-.8-.8-.3-1.2-.3c-.7,0-1.4.2-1.9.7s-.8,1.4-.8,2.7v5.7h-1.8v-.2Z"/>
    <path d="M685.6,36.8l1.7.2c-.2,1.2-.7,2.1-1.5,2.8s-1.7,1-2.9,1-2.6-.5-3.4-1.4c-.9-.9-1.3-2.3-1.3-4s.2-2.1.6-2.9.9-1.5,1.7-1.9,1.6-.6,2.5-.6,2,.3,2.8.9c.7.6,1.2,1.4,1.4,2.4l-1.7.3c-.2-.7-.5-1.2-.9-1.6s-.9-.5-1.5-.5c-.9,0-1.6.3-2.2,1-.6.6-.8,1.6-.8,3s.3,2.4.8,3,1.2.9,2.1.9,1.3-.2,1.7-.6c.5-.4.8-1.1.9-2Z"/>
    <path d="M688.8,28.3v-2h1.8v2h-1.8ZM688.8,40.6v-10.3h1.8v10.4h-1.8Z"/>
    <path d="M692.6,35.5c0-1.9.5-3.3,1.6-4.3.9-.8,2-1.2,3.3-1.2s2.6.5,3.5,1.4,1.4,2.2,1.4,3.9-.2,2.4-.6,3.1-1,1.4-1.7,1.8c-.8.4-1.6.6-2.5.6-1.5,0-2.6-.5-3.5-1.4-1.1-.9-1.5-2.2-1.5-3.9ZM694.4,35.5c0,1.3.3,2.3.9,3,.6.7,1.3,1,2.2,1s1.6-.3,2.2-1c.6-.7.9-1.7.9-3s-.3-2.3-.9-2.9c-.6-.7-1.3-1-2.2-1s-1.6.3-2.2,1c-.6.5-.9,1.5-.9,2.9ZM696.5,29l1.3-2.7h2.3l-2.1,2.7h-1.5Z"/>
    <path d="M704.4,40.6v-10.3h1.6v1.5c.8-1.1,1.9-1.7,3.3-1.7s1.2.1,1.7.3c.5.2.9.5,1.2.9s.4.8.5,1.3c0,.3,0,.9,0,1.7v6.4h-1.8v-6.3c0-.7,0-1.3-.2-1.6s-.4-.6-.7-.8-.8-.3-1.2-.3c-.7,0-1.4.2-1.9.7s-.8,1.4-.8,2.7v5.7h-1.8v-.2Z"/>
    <path d="M725.4,40.6l-5.5-14.3h2.1l3.7,10.4c.3.8.6,1.6.8,2.3.2-.8.5-1.6.8-2.3l3.9-10.4h1.9l-5.6,14.3h-2.1Z"/>
    <path d="M734,28.3v-2h1.8v2h-1.8ZM734,40.6v-10.3h1.8v10.4h-1.8Z"/>
    <path d="M737.8,37.5l1.7-.3c0,.7.4,1.2.8,1.6.4.4,1.1.6,1.9.6s1.4-.2,1.8-.5.6-.7.6-1.2-.2-.7-.5-.9c-.2-.2-.8-.4-1.8-.6-1.3-.3-2.2-.6-2.7-.8s-.9-.6-1.1-1c-.3-.4-.4-.9-.4-1.4s0-.9.3-1.3c.2-.4.5-.7.9-1,.3-.2.6-.4,1.1-.5s1-.2,1.5-.2c.8,0,1.5.1,2.1.4s1.1.6,1.4,1,.5.9.6,1.6l-1.7.2c0-.5-.3-1-.7-1.2-.4-.3-.9-.4-1.6-.4s-1.4.1-1.7.4-.5.6-.5.9,0,.4.2.6c0,.2.4.3.7.5.2,0,.7.2,1.6.4,1.2.3,2.1.6,2.6.8s.9.5,1.2.9.4.9.4,1.5-.2,1.1-.5,1.7-.8.9-1.5,1.2-1.4.4-2.2.4c-1.3,0-2.4-.3-3.1-.8-.8-.6-1.2-1.5-1.4-2.6Z"/>
    <path d="M755.3,40.6v-1.5c-.8,1.2-1.9,1.8-3.3,1.8s-1.2,0-1.7-.4c-.5-.2-.9-.5-1.2-.9s-.4-.8-.5-1.3c0-.3,0-.9,0-1.6v-6.4h1.8v5.7c0,.9,0,1.5,0,1.9,0,.5.3.8.7,1.1s.8.4,1.3.4,1,0,1.5-.4c.5-.3.8-.6,1-1.1s.3-1.1.3-2v-5.6h1.8v10.4h-1.7Z"/>
    <path d="M766.4,39.4c-.7.6-1.3.9-1.9,1.2-.6.2-1.2.3-1.9.3-1.1,0-2-.3-2.6-.8-.6-.6-.9-1.3-.9-2.1s0-1,.3-1.4.5-.8.9-1c.4-.3.8-.4,1.3-.6.3,0,.9-.2,1.6-.3,1.4-.2,2.5-.4,3.1-.6v-.5c0-.7-.2-1.2-.5-1.5-.4-.4-1.1-.6-2-.6s-1.4.1-1.8.4c-.4.3-.7.8-.9,1.5l-1.7-.2c.2-.7.4-1.3.8-1.8.4-.5.9-.8,1.6-1,.7-.2,1.5-.4,2.4-.4s1.6.1,2.2.3c.6.2,1,.5,1.2.8.3.3.4.7.5,1.2,0,.3,0,.8,0,1.6v2.3c0,1.6,0,2.7,0,3.1,0,.4.2.8.4,1.2h-1.8c-.4-.2-.5-.6-.5-1.1ZM766.2,35.4c-.6.3-1.6.5-2.9.7-.7,0-1.2.2-1.5.4-.3,0-.5.3-.7.6s-.2.5-.2.8c0,.5.2.9.5,1.2.4.3.9.5,1.6.5s1.3,0,1.8-.4.9-.7,1.2-1.2c.2-.4.3-1,.3-1.8v-.8h0Z"/>
    <path d="M770.7,40.6v-14.3h1.8v14.3h-1.8Z"/>
    <path d="M775.2,28.3v-2h1.8v2h-1.8ZM775.2,40.6v-10.3h1.8v10.4h-1.8Z"/>
    <path d="M786.3,40.6v-1.3c-.7,1-1.6,1.5-2.9,1.5s-1.6-.2-2.3-.7-1.2-1.1-1.6-1.9-.6-1.8-.6-2.8.2-2,.5-2.8.9-1.5,1.6-1.9c.7-.4,1.5-.7,2.3-.7s1.2.1,1.7.4.9.6,1.2,1v-5.1h1.7v14.3h-1.6ZM780.8,35.5c0,1.3.3,2.3.8,3,.6.7,1.2,1,2,1s1.4-.3,2-.9.8-1.6.8-2.9-.3-2.5-.8-3.1-1.2-1-2-1-1.4.3-2,1c-.6.5-.8,1.5-.8,2.9Z"/>
    <path d="M797.5,39.4c-.7.6-1.3.9-1.9,1.2-.6.2-1.2.3-1.9.3-1.1,0-2-.3-2.6-.8-.6-.6-.9-1.3-.9-2.1s0-1,.3-1.4.5-.8.9-1c.4-.3.8-.4,1.3-.6.3,0,.9-.2,1.6-.3,1.4-.2,2.5-.4,3.1-.6v-.5c0-.7-.2-1.2-.5-1.5-.4-.4-1.1-.6-2-.6s-1.4.1-1.8.4c-.4.3-.7.8-.9,1.5l-1.7-.2c.2-.7.4-1.3.8-1.8.4-.5.9-.8,1.6-1,.7-.2,1.5-.4,2.4-.4s1.6.1,2.2.3c.6.2,1,.5,1.2.8.3.3.4.7.5,1.2,0,.3,0,.8,0,1.6v2.3c0,1.6,0,2.7,0,3.1,0,.4.2.8.4,1.2h-1.8c-.3-.2-.4-.6-.5-1.1ZM797.4,35.4c-.6.3-1.6.5-2.9.7-.7,0-1.2.2-1.5.4-.3,0-.5.3-.7.6s-.2.5-.2.8c0,.5.2.9.5,1.2.4.3.9.5,1.6.5s1.3,0,1.8-.4.9-.7,1.2-1.2c.2-.4.3-1,.3-1.8v-.8h0Z"/>
    <path d="M808.6,40.6v-1.3c-.7,1-1.6,1.5-2.9,1.5s-1.6-.2-2.3-.7-1.2-1.1-1.6-1.9-.6-1.8-.6-2.8.2-2,.5-2.8.9-1.5,1.6-1.9c.7-.4,1.5-.7,2.3-.7s1.2.1,1.7.4.9.6,1.2,1v-5.1h1.7v14.3h-1.6ZM803,35.5c0,1.3.3,2.3.8,3,.6.7,1.2,1,2,1s1.4-.3,2-.9.8-1.6.8-2.9-.3-2.5-.8-3.1-1.2-1-2-1-1.4.3-2,1c-.5.5-.8,1.5-.8,2.9Z"/>
    <path d="M818.5,44.6l-.2-1.7c.4,0,.7.2,1,.2s.7,0,.9-.2.4-.3.6-.5c0-.2.3-.6.5-1.3,0,0,0-.2.2-.4l-3.9-10.4h1.9l2.2,6c.3.8.5,1.6.8,2.4.2-.8.4-1.6.7-2.4l2.2-6h1.8l-3.9,10.5c-.4,1.1-.8,1.9-1,2.4-.3.6-.7,1-1.1,1.3-.4.3-.9.4-1.4.4-.5,0-.9,0-1.3-.3Z"/>
    <path d="M834.3,40.6v-14.3h2.9l3.4,10.1c.3.9.5,1.7.7,2.1.2-.5.4-1.3.8-2.3l3.4-10h2.5v14.3h-1.8v-12l-4.2,12h-1.7l-4.1-12.2v12.2h-1.9Z"/>
    <path d="M857.9,37.3l1.8.2c-.3,1.1-.8,1.9-1.6,2.5s-1.8.9-3,.9-2.7-.5-3.6-1.4-1.3-2.2-1.3-3.9.4-3.1,1.3-4.1,2.1-1.4,3.5-1.4,2.5.5,3.4,1.4,1.3,2.3,1.3,4v.5h-7.7c0,1.1.4,2,1,2.6s1.3.9,2.2.9,1.2-.2,1.7-.5c.3-.4.7-1,1-1.7ZM852.1,34.5h5.8c0-.9-.3-1.5-.7-2-.6-.7-1.3-1-2.2-1s-1.5.3-2,.8c-.6.5-.9,1.3-.9,2.2Z"/>
    <path d="M868.6,40.6v-1.3c-.7,1-1.6,1.5-2.9,1.5s-1.6-.2-2.3-.7-1.2-1.1-1.6-1.9-.6-1.8-.6-2.8.2-2,.5-2.8.9-1.5,1.6-1.9c.7-.4,1.5-.7,2.3-.7s1.2.1,1.7.4.9.6,1.2,1v-5.1h1.7v14.3h-1.6ZM863.1,35.5c0,1.3.3,2.3.8,3,.6.7,1.2,1,2,1s1.4-.3,2-.9.8-1.6.8-2.9-.3-2.5-.8-3.1-1.2-1-2-1-1.4.3-2,1c-.6.5-.8,1.5-.8,2.9Z"/>
    <path d="M873,28.3v-2h1.8v2h-1.8ZM873,40.6v-10.3h1.8v10.4h-1.8Z"/>
    <path d="M876.8,35.5c0-1.9.5-3.3,1.6-4.3.9-.8,2-1.2,3.3-1.2s2.6.5,3.5,1.4,1.4,2.2,1.4,3.9-.2,2.4-.6,3.1-1,1.4-1.7,1.8-1.6.6-2.5.6c-1.5,0-2.6-.5-3.5-1.4s-1.5-2.2-1.5-3.9ZM878.6,35.5c0,1.3.3,2.3.9,3s1.3,1,2.2,1,1.6-.3,2.2-1,.9-1.7.9-3-.3-2.3-.9-2.9-1.3-1-2.2-1-1.6.3-2.2,1-.9,1.5-.9,2.9Z"/>
    <path d="M887.9,37.5l1.7-.3c0,.7.4,1.2.8,1.6s1.1.6,1.9.6,1.4-.2,1.8-.5.6-.7.6-1.2-.2-.7-.5-.9c-.2-.2-.8-.4-1.8-.6-1.3-.3-2.2-.6-2.7-.8s-.9-.6-1.1-1-.4-.9-.4-1.4,0-.9.3-1.3.5-.7.9-1c.3-.2.6-.4,1.1-.5s1-.2,1.5-.2c.8,0,1.5.1,2.1.4s1.1.6,1.4,1,.5.9.6,1.6l-1.7.2c0-.5-.3-1-.7-1.2s-.9-.4-1.6-.4-1.4.1-1.7.4-.5.6-.5.9,0,.4.2.6c0,.2.4.3.7.5.2,0,.7.2,1.6.4,1.2.3,2.1.6,2.6.8s.9.5,1.2.9.4.9.4,1.5-.2,1.1-.5,1.7-.8.9-1.5,1.2-1.4.4-2.2.4c-1.3,0-2.4-.3-3.1-.8s-1.2-1.5-1.4-2.6Z"/>
  </g>
  <g>
    <g id="vym">
      <rect class="st10" x="209.5" y="627.1" width="63" height="40"/>
      <rect class="st10" x="310.5" y="611.1" width="63" height="56"/>
      <rect class="st10" x="411.5" y="579.1" width="63" height="88"/>
      <rect class="st10" x="512.5" y="467.1" width="63" height="200"/>
      <rect class="st10" x="613.5" y="499.1" width="63" height="168"/>
      <rect class="st10" x="714.5" y="395.1" width="63" height="272"/>
      <rect class="st10" x="108.5" y="651.1" width="63" height="16"/>
    </g>
    <g id="indust">
      <rect class="st5" x="209.5" y="587.1" width="63" height="40"/>
      <rect class="st5" x="310.5" y="579.1" width="63" height="32"/>
      <rect class="st5" x="411.5" y="539.1" width="63" height="40"/>
      <rect class="st5" x="512.5" y="283.1" width="63" height="184"/>
      <rect class="st5" x="613.5" y="387.1" width="63" height="112"/>
      <rect class="st5" x="714.5" y="179.1" width="63" height="216"/>
    </g>
    <g id="diseñador">
      <rect class="st12" x="411.5" y="507.1" width="63" height="32"/>
      <rect class="st12" x="512.5" y="227.1" width="63" height="56"/>
      <rect class="st12" x="613.5" y="355.1" width="63" height="32"/>
      <rect class="st12" x="714.5" y="115.1" width="63" height="64"/>
      <rect class="st12" x="108.5" y="643.1" width="63" height="8"/>
    </g>
    <path class="st7" d="M70.5,667.1h745"/>
    <line class="st7" x1="140" y1="667.1" x2="140" y2="673.1"/>
    <g class="st11">
      <path d="M125.1,690.1c.2-.4.6-.9,1.3-1.2l.9-.5c.4-.2.7-.5.9-.6.3-.3.4-.6.4-.9s-.1-.7-.4-1c-.2-.2-.6-.4-1-.4-.6,0-1,.2-1.2.7,0,.2-.2.6-.2,1h-.9c0-.6,0-1.1.3-1.5.4-.7,1.1-1,2-1s1.4.2,1.8.6.6.9.6,1.4-.2,1-.6,1.4c-.2.2-.6.5-1.2.8l-.7.4c-.3.2-.6.3-.8.5-.3.3-.5.6-.6.9h3.8v.8h-4.8c.1-.4.2-.9.4-1.4Z"/>
      <path d="M134.6,685.8c.3.6.5,1.4.5,2.4s-.1,1.7-.4,2.4c-.4.9-1.1,1.3-2,1.3s-1.5-.4-1.9-1.1c-.3-.6-.5-1.4-.5-2.5s.1-1.5.3-2c.4-1.1,1.1-1.6,2.1-1.6.9,0,1.5.4,1.9,1.1ZM133.8,690.5c.3-.4.4-1.2.4-2.3s-.1-1.4-.3-2c-.2-.5-.6-.8-1.1-.8s-.9.2-1.1.7c-.2.5-.4,1.2-.4,2.2s.1,1.3.2,1.7c.2.7.6,1,1.2,1,.4,0,.8-.1,1.1-.5Z"/>
      <path d="M136.2,690.1c.2-.4.6-.9,1.3-1.2l.9-.5c.4-.2.7-.5.9-.6.3-.3.4-.6.4-.9s-.1-.7-.4-1c-.2-.2-.6-.4-1-.4-.6,0-1,.2-1.2.7-.1.2-.2.6-.2,1h-.9c0-.6.1-1.1.3-1.5.4-.7,1.1-1,2-1s1.4.2,1.8.6.6.9.6,1.4-.2,1-.6,1.4c-.2.2-.6.5-1.2.8l-.7.4c-.3.2-.6.3-.8.5-.3.3-.5.6-.6.9h3.8v.8h-4.8c0-.4.2-.9.4-1.4Z"/>
      <path d="M142.1,686.8v-.7c.6,0,1.1-.2,1.3-.3.3,0,.4-.5.6-1h.7v7h-.9v-5h-1.7Z"/>
      <path d="M147.1,688.5h2.5v.9h-2.5v-.9Z"/>
      <path d="M150.7,690.1c.2-.4.6-.9,1.3-1.2l.9-.5c.4-.2.7-.5.9-.6.3-.3.4-.6.4-.9s-.1-.7-.4-1c-.2-.2-.6-.4-1-.4-.6,0-1,.2-1.2.7-.1.2-.2.6-.2,1h-.9c0-.6.1-1.1.3-1.5.4-.7,1.1-1,2-1s1.4.2,1.8.6.6.9.6,1.4-.2,1-.6,1.4c-.2.2-.6.5-1.2.8l-.7.4c-.3.2-.6.3-.8.5-.3.3-.5.6-.6.9h3.8v.8h-4.8c0-.4.2-.9.4-1.4Z"/>
    </g>
    <line class="st6" x1="241" y1="667.1" x2="241" y2="673.1"/>
    <g class="st11">
      <path d="M226.1,690.1c.2-.4.6-.9,1.3-1.2l.9-.5c.4-.2.7-.5.9-.6.3-.3.4-.6.4-.9s-.1-.7-.4-1c-.2-.2-.6-.4-1-.4-.6,0-1,.2-1.2.7-.1.2-.2.6-.2,1h-.9c0-.6.1-1.1.3-1.5.4-.7,1.1-1,2-1s1.4.2,1.8.6.6.9.6,1.4-.2,1-.6,1.4c-.2.2-.6.5-1.2.8l-.7.4c-.3.2-.6.3-.8.5-.3.3-.5.6-.6.9h3.8v.8h-4.8c0-.4.2-.9.4-1.4Z"/>
      <path d="M235.6,685.8c.3.6.5,1.4.5,2.4s-.1,1.7-.4,2.4c-.4.9-1.1,1.3-2,1.3s-1.5-.4-1.9-1.1c-.3-.6-.5-1.4-.5-2.5s.1-1.5.3-2c.4-1.1,1.1-1.6,2.1-1.6.9,0,1.5.4,1.9,1.1ZM234.8,690.5c.3-.4.4-1.2.4-2.3s-.1-1.4-.3-2c-.2-.5-.6-.8-1.1-.8s-.9.2-1.1.7c-.2.5-.4,1.2-.4,2.2s.1,1.3.2,1.7c.2.7.6,1,1.2,1,.4,0,.8-.1,1.1-.5Z"/>
      <path d="M237.2,690.1c.2-.4.6-.9,1.3-1.2l.9-.5c.4-.2.7-.5.9-.6.3-.3.4-.6.4-.9s-.1-.7-.4-1c-.2-.2-.6-.4-1-.4-.6,0-1,.2-1.2.7-.1.2-.2.6-.2,1h-.9c0-.6.1-1.1.3-1.5.4-.7,1.1-1,2-1s1.4.2,1.8.6.6.9.6,1.4-.2,1-.6,1.4c-.2.2-.6.5-1.2.8l-.7.4c-.3.2-.6.3-.8.5-.3.3-.5.6-.6.9h3.8v.8h-4.8c0-.4.2-.9.4-1.4Z"/>
      <path d="M242.8,690.1c.2-.4.6-.9,1.3-1.2l.9-.5c.4-.2.7-.5.9-.6.3-.3.4-.6.4-.9s-.1-.7-.4-1c-.2-.2-.6-.4-1-.4-.6,0-1,.2-1.2.7-.1.2-.2.6-.2,1h-.9c0-.6.1-1.1.3-1.5.4-.7,1.1-1,2-1s1.4.2,1.8.6.6.9.6,1.4-.2,1-.6,1.4c-.2.2-.6.5-1.2.8l-.7.4c-.3.2-.6.3-.8.5-.3.3-.5.6-.6.9h3.8v.8h-4.8c0-.4.2-.9.4-1.4Z"/>
      <path d="M248.1,688.5h2.5v.9h-2.5v-.9Z"/>
      <path d="M252,686.8v-.7c.6,0,1.1-.2,1.3-.3.3,0,.4-.5.6-1h.7v7h-.9v-5h-1.7Z"/>
    </g>
    <line class="st6" x1="342" y1="667.1" x2="342" y2="673.1"/>
    <g class="st11">
      <path d="M327.1,690.1c.2-.4.6-.9,1.3-1.2l.9-.5c.4-.2.7-.5.9-.6.3-.3.4-.6.4-.9s-.1-.7-.4-1-.6-.4-1-.4c-.6,0-1,.2-1.2.7-.1.2-.2.6-.2,1h-.9c0-.6.1-1.1.3-1.5.4-.7,1.1-1,2-1s1.4.2,1.8.6.6.9.6,1.4-.2,1-.6,1.4c-.2.2-.6.5-1.2.8l-.7.4c-.3.2-.6.3-.8.5-.3.3-.5.6-.6.9h3.8v.8h-4.8c.1-.4.2-.9.4-1.4Z"/>
      <path d="M336.7,685.8c.3.6.5,1.4.5,2.4s-.1,1.7-.4,2.4c-.4.9-1.1,1.3-2,1.3s-1.5-.4-1.9-1.1c-.3-.6-.5-1.4-.5-2.5s.1-1.5.3-2c.4-1.1,1.1-1.6,2.1-1.6.8,0,1.5.4,1.9,1.1ZM335.8,690.5c.3-.4.4-1.2.4-2.3s-.1-1.4-.3-2c-.2-.5-.6-.8-1.1-.8s-.9.2-1.1.7-.4,1.2-.4,2.2.1,1.3.2,1.7c.2.7.6,1,1.2,1,.4,0,.8-.1,1.1-.5Z"/>
      <path d="M338.2,690.1c.2-.4.6-.9,1.3-1.2l.9-.5c.4-.2.7-.5.9-.6.3-.3.4-.6.4-.9s-.1-.7-.4-1-.6-.4-1-.4c-.6,0-1,.2-1.2.7-.1.2-.2.6-.2,1h-.9c0-.6.1-1.1.3-1.5.4-.7,1.1-1,2-1s1.4.2,1.8.6.6.9.6,1.4-.2,1-.6,1.4c-.2.2-.6.5-1.2.8l-.7.4c-.3.2-.6.3-.8.5-.3.3-.5.6-.6.9h3.8v.8h-4.8c.1-.4.2-.9.4-1.4Z"/>
      <path d="M343.8,690.1c.2-.4.6-.9,1.3-1.2l.9-.5c.4-.2.7-.5.9-.6.3-.3.4-.6.4-.9s-.1-.7-.4-1-.6-.4-1-.4c-.6,0-1,.2-1.2.7-.1.2-.2.6-.2,1h-.9c0-.6.1-1.1.3-1.5.4-.7,1.1-1,2-1s1.4.2,1.8.6.6.9.6,1.4-.2,1-.6,1.4c-.2.2-.6.5-1.2.8l-.7.4c-.3.2-.6.3-.8.5-.3.3-.5.6-.6.9h3.8v.8h-4.8c.1-.4.2-.9.4-1.4Z"/>
      <path d="M349.1,688.5h2.5v.9h-2.5v-.9Z"/>
      <path d="M352.7,690.1c.2-.4.6-.9,1.3-1.2l.9-.5c.4-.2.7-.5.9-.6.3-.3.4-.6.4-.9s-.1-.7-.4-1-.6-.4-1-.4c-.6,0-1,.2-1.2.7-.1.2-.2.6-.2,1h-.9c0-.6.1-1.1.3-1.5.4-.7,1.1-1,2-1s1.4.2,1.8.6.6.9.6,1.4-.2,1-.6,1.4c-.2.2-.6.5-1.2.8l-.7.4c-.3.2-.6.3-.8.5-.3.3-.5.6-.6.9h3.8v.8h-4.8c0-.4.2-.9.4-1.4Z"/>
    </g>
    <line class="st6" x1="443" y1="667.1" x2="443" y2="673.1"/>
    <g class="st11">
      <path d="M428.1,690.1c.2-.4.6-.9,1.3-1.2l.9-.5c.4-.2.7-.5.9-.6.3-.3.4-.6.4-.9s-.1-.7-.4-1-.6-.4-1-.4c-.6,0-1,.2-1.2.7-.1.2-.2.6-.2,1h-.9c0-.6.1-1.1.3-1.5.4-.7,1.1-1,2-1s1.4.2,1.8.6.6.9.6,1.4-.2,1-.6,1.4c-.2.2-.6.5-1.2.8l-.7.4c-.3.2-.6.3-.8.5-.3.3-.5.6-.6.9h3.8v.8h-4.8c.1-.4.2-.9.4-1.4Z"/>
      <path d="M437.7,685.8c.3.6.5,1.4.5,2.4s-.1,1.7-.4,2.4c-.4.9-1.1,1.3-2,1.3s-1.5-.4-1.9-1.1c-.3-.6-.5-1.4-.5-2.5s.1-1.5.3-2c.4-1.1,1.1-1.6,2.1-1.6.8,0,1.5.4,1.9,1.1ZM436.8,690.5c.3-.4.4-1.2.4-2.3s-.1-1.4-.3-2c-.2-.5-.6-.8-1.1-.8s-.9.2-1.1.7-.4,1.2-.4,2.2.1,1.3.2,1.7c.2.7.6,1,1.2,1,.4,0,.8-.1,1.1-.5Z"/>
      <path d="M439.2,690.1c.2-.4.6-.9,1.3-1.2l.9-.5c.4-.2.7-.5.9-.6.3-.3.4-.6.4-.9s-.1-.7-.4-1-.6-.4-1-.4c-.6,0-1,.2-1.2.7-.1.2-.2.6-.2,1h-.9c0-.6.1-1.1.3-1.5.4-.7,1.1-1,2-1s1.4.2,1.8.6.6.9.6,1.4-.2,1-.6,1.4c-.2.2-.6.5-1.2.8l-.7.4c-.3.2-.6.3-.8.5-.3.3-.5.6-.6.9h3.8v.8h-4.8c.1-.4.2-.9.4-1.4Z"/>
      <path d="M444.9,691.2c-.4-.5-.6-1-.6-1.7h.9c0,.5.1.8.3,1,.2.4.6.6,1.2.6s.8,0,1.1-.4.4-.6.4-1-.1-.8-.4-1-.7-.3-1.2-.3h-.4v-.8h.4c.3,0,.6,0,.8-.2.4-.2.6-.5.6-1s-.1-.6-.4-.8-.5-.3-.9-.3c-.6,0-1,.2-1.2.6-.1.2-.2.5-.2.9h-.9c0-.5.1-1,.3-1.3.4-.7,1-1,1.9-1s1.3.2,1.7.5c.4.3.6.8.6,1.4s-.1.8-.3,1c-.1.2-.3.3-.6.4.4,0,.7.3.9.6.2.3.3.6.3,1.1s-.2,1.2-.7,1.6-1.1.6-1.9.6c-.7.2-1.3,0-1.7-.5Z"/>
      <path d="M450.1,688.5h2.5v.9h-2.5v-.9Z"/>
      <path d="M454,686.8v-.7c.6,0,1.1-.2,1.3-.3.3,0,.4-.5.6-1h.7v7h-.9v-5h-1.7Z"/>
    </g>
    <line class="st6" x1="544" y1="667.1" x2="544" y2="673.1"/>
    <g class="st11">
      <path d="M529.1,690.1c.2-.4.6-.9,1.3-1.2l.9-.5c.4-.2.7-.5.9-.6.3-.3.4-.6.4-.9s0-.7-.4-1c-.2-.2-.6-.4-1-.4-.6,0-1,.2-1.2.7,0,.2-.2.6-.2,1h-.9c0-.6,0-1.1.3-1.5.4-.7,1.1-1,2-1s1.4.2,1.8.6.6.9.6,1.4-.2,1-.6,1.4c-.2.2-.6.5-1.2.8l-.7.4c-.3.2-.6.3-.8.5-.3.3-.5.6-.6.9h3.8v.8h-4.8c.1-.4.2-.9.4-1.4Z"/>
      <path d="M538.7,685.8c.3.6.5,1.4.5,2.4s0,1.7-.4,2.4c-.4.9-1.1,1.3-2,1.3s-1.5-.4-1.9-1.1c-.3-.6-.5-1.4-.5-2.5s0-1.5.3-2c.4-1.1,1.1-1.6,2.1-1.6.8,0,1.5.4,1.9,1.1ZM537.8,690.5c.3-.4.4-1.2.4-2.3s0-1.4-.3-2c-.2-.5-.6-.8-1.1-.8s-.9.2-1.1.7c-.2.5-.4,1.2-.4,2.2s0,1.3.2,1.7c.2.7.6,1,1.2,1,.4,0,.8-.1,1.1-.5Z"/>
      <path d="M540.2,690.1c.2-.4.6-.9,1.3-1.2l.9-.5c.4-.2.7-.5.9-.6.3-.3.4-.6.4-.9s0-.7-.4-1c-.2-.2-.6-.4-1-.4-.6,0-1,.2-1.2.7,0,.2-.2.6-.2,1h-.9c0-.6,0-1.1.3-1.5.4-.7,1.1-1,2-1s1.4.2,1.8.6.6.9.6,1.4-.2,1-.6,1.4c-.2.2-.6.5-1.2.8l-.7.4c-.3.2-.6.3-.8.5-.3.3-.5.6-.6.9h3.8v.8h-4.8c.1-.4.2-.9.4-1.4Z"/>
      <path d="M545.9,691.2c-.4-.5-.6-1-.6-1.7h.9c0,.5,0,.8.3,1,.2.4.6.6,1.2.6s.8,0,1.1-.4c.3-.2.4-.6.4-1s0-.8-.4-1c-.3-.2-.7-.3-1.2-.3h-.4v-.8h.4c.3,0,.6,0,.8-.2.4-.2.6-.5.6-1s0-.6-.4-.8c-.2-.2-.5-.3-.9-.3-.6,0-1,.2-1.2.6,0,.2-.2.5-.2.9h-.9c0-.5,0-1,.3-1.3.4-.7,1-1,1.9-1s1.3.2,1.7.5.6.8.6,1.4,0,.8-.3,1c0,.2-.3.3-.6.4.4,0,.7.3.9.6s.3.6.3,1.1-.2,1.2-.7,1.6-1.1.6-1.9.6c-.7.2-1.3,0-1.7-.5Z"/>
      <path d="M551.1,688.5h2.5v.9h-2.5v-.9Z"/>
      <path d="M554.7,690.1c.2-.4.6-.9,1.3-1.2l.9-.5c.4-.2.7-.5.9-.6.3-.3.4-.6.4-.9s0-.7-.4-1c-.2-.2-.6-.4-1-.4-.6,0-1,.2-1.2.7,0,.2-.2.6-.2,1h-.9c0-.6,0-1.1.3-1.5.4-.7,1.1-1,2-1s1.4.2,1.8.6.6.9.6,1.4-.2,1-.6,1.4c-.2.2-.6.5-1.2.8l-.7.4c-.3.2-.6.3-.8.5-.3.3-.5.6-.6.9h3.8v.8h-4.8c.1-.4.2-.9.4-1.4Z"/>
    </g>
    <line class="st6" x1="645" y1="667.1" x2="645" y2="673.1"/>
    <g class="st11">
      <path d="M630.1,690.1c.2-.4.6-.9,1.3-1.2l.9-.5c.4-.2.7-.5.9-.6.3-.3.4-.6.4-.9s0-.7-.4-1c-.2-.2-.6-.4-1-.4-.6,0-1,.2-1.2.7,0,.2-.2.6-.2,1h-.9c0-.6,0-1.1.3-1.5.4-.7,1.1-1,2-1s1.4.2,1.8.6.6.9.6,1.4-.2,1-.6,1.4c-.2.2-.6.5-1.2.8l-.7.4c-.3.2-.6.3-.8.5-.3.3-.5.6-.6.9h3.8v.8h-4.8c.1-.4.2-.9.4-1.4Z"/>
      <path d="M639.7,685.8c.3.6.5,1.4.5,2.4s0,1.7-.4,2.4c-.4.9-1.1,1.3-2,1.3s-1.5-.4-1.9-1.1c-.3-.6-.5-1.4-.5-2.5s0-1.5.3-2c.4-1.1,1.1-1.6,2.1-1.6.8,0,1.5.4,1.9,1.1ZM638.8,690.5c.3-.4.4-1.2.4-2.3s0-1.4-.3-2c-.2-.5-.6-.8-1.1-.8s-.9.2-1.1.7c-.2.5-.4,1.2-.4,2.2s0,1.3.2,1.7c.2.7.6,1,1.2,1,.5,0,.8-.1,1.1-.5Z"/>
      <path d="M641.3,690.1c.2-.4.6-.9,1.3-1.2l.9-.5c.4-.2.7-.5.9-.6.3-.3.4-.6.4-.9s0-.7-.4-1c-.2-.2-.6-.4-1-.4-.6,0-1,.2-1.2.7,0,.2-.2.6-.2,1h-1c0-.6,0-1.1.3-1.5.4-.7,1.1-1,2-1s1.4.2,1.8.6.6.9.6,1.4-.2,1-.6,1.4c-.2.2-.6.5-1.2.8l-.7.4c-.3.2-.6.3-.8.5-.3.3-.5.6-.6.9h3.8v.8h-4.8c.1-.4.2-.9.5-1.4Z"/>
      <path d="M649.4,691.7v-1.7h-3.1v-.9l3.2-4.4h.7v4.5h1v.8h-1v1.7h-.8ZM649.4,689.2v-3.2l-2.2,3.2h2.2Z"/>
      <path d="M652.1,688.5h2.5v.9h-2.5v-.9Z"/>
      <path d="M656,686.8v-.7c.6,0,1.1-.2,1.3-.3s.4-.5.6-1h.7v7h-.9v-5h-1.7Z"/>
    </g>
    <line class="st6" x1="746" y1="667.1" x2="746" y2="673.1"/>
    <g class="st11">
      <path d="M731.1,690.1c.2-.4.6-.9,1.3-1.2l.9-.5c.4-.2.7-.5.9-.6.3-.3.4-.6.4-.9s0-.7-.4-1c-.2-.2-.6-.4-1-.4-.6,0-1,.2-1.2.7,0,.2-.2.6-.2,1h-.9c0-.6,0-1.1.3-1.5.4-.7,1.1-1,2-1s1.4.2,1.8.6.6.9.6,1.4-.2,1-.6,1.4c-.2.2-.6.5-1.2.8l-.7.4c-.3.2-.6.3-.8.5-.3.3-.5.6-.6.9h3.8v.8h-4.8c.1-.4.2-.9.4-1.4Z"/>
      <path d="M740.7,685.8c.3.6.5,1.4.5,2.4s0,1.7-.4,2.4c-.4.9-1.1,1.3-2,1.3s-1.5-.4-1.9-1.1c-.3-.6-.5-1.4-.5-2.5s0-1.5.3-2c.4-1.1,1.1-1.6,2.1-1.6.8,0,1.5.4,1.9,1.1ZM739.8,690.5c.3-.4.4-1.2.4-2.3s0-1.4-.3-2c-.2-.5-.6-.8-1.1-.8s-.9.2-1.1.7c-.2.5-.4,1.2-.4,2.2s0,1.3.2,1.7c.2.7.6,1,1.2,1,.5,0,.8-.1,1.1-.5Z"/>
      <path d="M742.3,690.1c.2-.4.6-.9,1.3-1.2l.9-.5c.4-.2.7-.5.9-.6.3-.3.4-.6.4-.9s0-.7-.4-1c-.2-.2-.6-.4-1-.4-.6,0-1,.2-1.2.7,0,.2-.2.6-.2,1h-.9c0-.6,0-1.1.3-1.5.4-.7,1.1-1,2-1s1.4.2,1.8.6.6.9.6,1.4-.2,1-.6,1.4c-.2.2-.6.5-1.2.8l-.7.4c-.3.2-.6.3-.8.5-.3.3-.5.6-.6.9h3.8v.8h-4.8c0-.4.1-.9.4-1.4Z"/>
      <path d="M750.5,691.7v-1.7h-3.1v-.9l3.2-4.4h.7v4.5h1v.8h-1v1.7h-.8ZM750.4,689.2v-3.2l-2.2,3.2h2.2Z"/>
      <path d="M753.1,688.5h2.5v.9h-2.5v-.9Z"/>
      <path d="M756.7,690.1c.2-.4.6-.9,1.3-1.2l.9-.5c.4-.2.7-.5.9-.6.3-.3.4-.6.4-.9s0-.7-.4-1c-.2-.2-.6-.4-1-.4-.6,0-1,.2-1.2.7,0,.2-.2.6-.2,1h-.9c0-.6,0-1.1.3-1.5.4-.7,1.1-1,2-1s1.4.2,1.8.6.6.9.6,1.4-.2,1-.6,1.4c-.2.2-.6.5-1.2.8l-.7.4c-.3.2-.6.3-.8.5-.3.3-.5.6-.6.9h3.8v.8h-4.8c.1-.4.2-.9.4-1.4Z"/>
    </g>
    <path class="st7" d="M70.5,667.1V107.1"/>
    <line class="st7" x1="70.5" y1="667.1" x2="64.5" y2="667.1"/>
    <g class="st11">
      <path d="M55.2,665.2c.3.6.5,1.4.5,2.4s0,1.7-.4,2.4c-.4.9-1.1,1.3-2,1.3s-1.5-.4-1.9-1.1c-.3-.6-.5-1.4-.5-2.5s0-1.5.3-2c.4-1.1,1.1-1.6,2.1-1.6.8,0,1.5.4,1.9,1.1ZM54.3,669.9c.3-.4.4-1.2.4-2.3s0-1.4-.3-2c-.2-.5-.6-.8-1.1-.8s-.9.2-1.1.7c-.2.5-.4,1.2-.4,2.2s0,1.3.2,1.7c.2.7.6,1,1.2,1,.5,0,.8-.1,1.1-.5Z"/>
    </g>
    <line class="st7" x1="70.5" y1="627.1" x2="64.5" y2="627.1"/>
    <g class="st11">
      <path d="M51.7,629.3c0,.5.3.8.7,1,.2,0,.4,0,.7,0,.5,0,.9-.2,1.2-.5s.4-.7.4-1.1,0-.9-.4-1.1-.7-.4-1.1-.4-.6,0-.8.2-.4.3-.6.5h-.8l.5-3.8h3.6v.8h-3v2c0,0,.2-.2.4-.3.3,0,.6-.2.9-.2.6,0,1.2.2,1.6.6s.7.9.7,1.6-.2,1.2-.6,1.7-1.1.8-2,.8-1.1-.2-1.5-.5-.7-.8-.7-1.5h.8Z"/>
    </g>
    <line class="st7" x1="70.5" y1="587.1" x2="64.5" y2="587.1"/>
    <g class="st11">
      <path d="M45.9,586.1v-.7c.6,0,1.1-.2,1.3-.3.3,0,.4-.5.6-1h.7v7h-.9v-5h-1.7Z"/>
      <path d="M55.2,585.2c.3.6.5,1.4.5,2.4s0,1.7-.4,2.4c-.4.9-1.1,1.3-2,1.3s-1.5-.4-1.9-1.1c-.3-.6-.5-1.4-.5-2.5s0-1.5.3-2c.4-1.1,1.1-1.6,2.1-1.6.8,0,1.5.4,1.9,1.1ZM54.3,589.9c.3-.4.4-1.2.4-2.3s0-1.4-.3-2c-.2-.5-.6-.8-1.1-.8s-.9.2-1.1.7c-.2.5-.4,1.2-.4,2.2s0,1.3.2,1.7c.2.7.6,1,1.2,1,.5,0,.8-.1,1.1-.5Z"/>
    </g>
    <line class="st7" x1="70.5" y1="547.1" x2="64.5" y2="547.1"/>
    <g class="st11">
      <path d="M45.9,546.1v-.7c.6,0,1.1-.2,1.3-.3.3,0,.4-.5.6-1h.7v7h-.9v-5h-1.7Z"/>
      <path d="M51.7,549.3c0,.5.3.8.7,1,.2,0,.4,0,.7,0,.5,0,.9-.2,1.2-.5s.4-.7.4-1.1,0-.9-.4-1.1-.7-.4-1.1-.4-.6,0-.8.2-.4.3-.6.5h-.8l.5-3.8h3.6v.8h-3v2c0,0,.2-.2.4-.3.3,0,.6-.2.9-.2.6,0,1.2.2,1.6.6s.7.9.7,1.6-.2,1.2-.6,1.7-1.1.8-2,.8-1.1-.2-1.5-.5-.7-.8-.7-1.5h.8Z"/>
    </g>
    <line class="st7" x1="70.5" y1="507.1" x2="64.5" y2="507.1"/>
    <g class="st11">
      <path d="M45.6,509.5c.2-.4.6-.9,1.3-1.2l.9-.5c.4-.2.7-.5.9-.6.3-.3.4-.6.4-.9s0-.7-.4-1c-.2-.2-.6-.4-1-.4-.6,0-1,.2-1.2.7,0,.2-.2.6-.2,1h-.9c0-.6,0-1.1.3-1.5.4-.7,1.1-1,2-1s1.4.2,1.8.6.6.9.6,1.4-.2,1-.6,1.4c-.2.2-.6.5-1.2.8l-.7.4c-.3.2-.6.3-.8.5-.3.3-.5.6-.6.9h3.8v.8h-4.8c.1-.4.2-.9.4-1.4Z"/>
      <path d="M55.2,505.2c.3.6.5,1.4.5,2.4s0,1.7-.4,2.4c-.4.9-1.1,1.3-2,1.3s-1.5-.4-1.9-1.1c-.3-.6-.5-1.4-.5-2.5s0-1.5.3-2c.4-1.1,1.1-1.6,2.1-1.6.8,0,1.5.4,1.9,1.1ZM54.3,509.9c.3-.4.4-1.2.4-2.3s0-1.4-.3-2c-.2-.5-.6-.8-1.1-.8s-.9.2-1.1.7c-.2.5-.4,1.2-.4,2.2s0,1.3.2,1.7c.2.7.6,1,1.2,1,.5,0,.8-.1,1.1-.5Z"/>
    </g>
    <line class="st7" x1="70.5" y1="467.1" x2="64.5" y2="467.1"/>
    <g class="st11">
      <path d="M45.6,469.5c.2-.4.6-.9,1.3-1.2l.9-.5c.4-.2.7-.5.9-.6.3-.3.4-.6.4-.9s0-.7-.4-1c-.2-.2-.6-.4-1-.4-.6,0-1,.2-1.2.7,0,.2-.2.6-.2,1h-.9c0-.6,0-1.1.3-1.5.4-.7,1.1-1,2-1s1.4.2,1.8.6.6.9.6,1.4-.2,1-.6,1.4c-.2.2-.6.5-1.2.8l-.7.4c-.3.2-.6.3-.8.5-.3.3-.5.6-.6.9h3.8v.8h-4.8c.1-.4.2-.9.4-1.4Z"/>
      <path d="M51.7,469.3c0,.5.3.8.7,1s.4.1.7.1c.5,0,.9-.2,1.2-.5s.4-.7.4-1.1,0-.9-.4-1.1-.7-.4-1.1-.4-.6.1-.8.2-.4.3-.6.5h-.8l.5-3.8h3.6v.8h-3v2c0-.1.2-.2.4-.3.3-.1.6-.2.9-.2.6,0,1.2.2,1.6.6s.7.9.7,1.6-.2,1.2-.6,1.7-1.1.8-2,.8-1.1-.2-1.5-.5-.7-.8-.7-1.5h.8Z"/>
    </g>
    <line class="st7" x1="70.5" y1="427.1" x2="64.5" y2="427.1"/>
    <g class="st11">
      <path d="M45.7,430.6c-.4-.5-.6-1-.6-1.7h.9c0,.5,0,.8.3,1,.2.4.6.6,1.2.6s.8-.1,1.1-.4.4-.6.4-1,0-.8-.4-1-.7-.3-1.2-.3h-.4v-.8h.4c.3,0,.6-.1.8-.2.4-.2.6-.5.6-1s0-.6-.4-.8-.5-.3-.9-.3c-.6,0-1,.2-1.2.6,0,.2-.2.5-.2.9h-.9c0-.5,0-1,.3-1.3.4-.7,1-1,1.9-1s1.3.2,1.7.5.6.8.6,1.4,0,.8-.3,1c0,.2-.3.3-.6.4.4.1.7.3.9.6.2.3.3.6.3,1.1s-.2,1.2-.7,1.6-1.1.6-1.9.6c-.7.2-1.3-.1-1.7-.5Z"/>
      <path d="M55.2,425.2c.3.6.5,1.4.5,2.4s0,1.7-.4,2.4c-.4.9-1.1,1.3-2,1.3s-1.5-.4-1.9-1.1c-.3-.6-.5-1.4-.5-2.5s0-1.5.3-2c.4-1.1,1.1-1.6,2.1-1.6.8,0,1.5.4,1.9,1.1ZM54.3,429.9c.3-.4.4-1.2.4-2.3s0-1.4-.3-2c-.2-.5-.6-.8-1.1-.8s-.9.2-1.1.7c-.2.5-.4,1.2-.4,2.2s0,1.3.2,1.7c.2.7.6,1,1.2,1,.5,0,.8-.1,1.1-.5Z"/>
    </g>
    <line class="st7" x1="70.5" y1="387.1" x2="64.5" y2="387.1"/>
    <g class="st11">
      <path d="M45.7,390.6c-.4-.5-.6-1-.6-1.7h.9c0,.5,0,.8.3,1,.2.4.6.6,1.2.6s.8-.1,1.1-.4.4-.6.4-1,0-.8-.4-1-.7-.3-1.2-.3h-.4v-.8h.4c.3,0,.6-.1.8-.2.4-.2.6-.5.6-1s0-.6-.4-.8-.5-.3-.9-.3c-.6,0-1,.2-1.2.6,0,.2-.2.5-.2.9h-.9c0-.5,0-1,.3-1.3.4-.7,1-1,1.9-1s1.3.2,1.7.5.6.8.6,1.4,0,.8-.3,1c0,.2-.3.3-.6.4.4.1.7.3.9.6.2.3.3.6.3,1.1s-.2,1.2-.7,1.6-1.1.6-1.9.6c-.7.2-1.3-.1-1.7-.5Z"/>
      <path d="M51.7,389.3c0,.5.3.8.7,1s.4.1.7.1c.5,0,.9-.2,1.2-.5s.4-.7.4-1.1,0-.9-.4-1.1-.7-.4-1.1-.4-.6.1-.8.2-.4.3-.6.5h-.8l.5-3.8h3.6v.8h-3v2c0-.1.2-.2.4-.3.3-.1.6-.2.9-.2.6,0,1.2.2,1.6.6s.7.9.7,1.6-.2,1.2-.6,1.7-1.1.8-2,.8-1.1-.2-1.5-.5-.7-.8-.7-1.5h.8Z"/>
    </g>
    <line class="st7" x1="70.5" y1="347.1" x2="64.5" y2="347.1"/>
    <g class="st11">
      <path d="M48.3,351.1v-1.7h-3.1v-.9l3.2-4.4h.7v4.5h1v.8h-1v1.7h-.8ZM48.3,348.6v-3.2l-2.2,3.2h2.2Z"/>
      <path d="M55.2,345.2c.3.6.5,1.4.5,2.4s0,1.7-.4,2.4c-.4.9-1.1,1.3-2,1.3s-1.5-.4-1.9-1.1c-.3-.6-.5-1.4-.5-2.5s0-1.5.3-2c.4-1.1,1.1-1.6,2.1-1.6.8,0,1.5.4,1.9,1.1ZM54.3,349.9c.3-.4.4-1.2.4-2.3s0-1.4-.3-2c-.2-.5-.6-.8-1.1-.8s-.9.2-1.1.7c-.2.5-.4,1.2-.4,2.2s0,1.3.2,1.7c.2.7.6,1,1.2,1,.5,0,.8-.1,1.1-.5Z"/>
    </g>
    <line class="st7" x1="70.5" y1="307.1" x2="64.5" y2="307.1"/>
    <g class="st11">
      <path d="M48.3,311.1v-1.7h-3.1v-.9l3.2-4.4h.7v4.5h1v.8h-1v1.7h-.8ZM48.3,308.6v-3.2l-2.2,3.2h2.2Z"/>
      <path d="M51.7,309.3c0,.5.3.8.7,1s.4.1.7.1c.5,0,.9-.2,1.2-.5s.4-.7.4-1.1,0-.9-.4-1.1-.7-.4-1.1-.4-.6.1-.8.2-.4.3-.6.5h-.8l.5-3.8h3.6v.8h-3v2c0-.1.2-.2.4-.3.3-.1.6-.2.9-.2.6,0,1.2.2,1.6.6s.7.9.7,1.6-.2,1.2-.6,1.7-1.1.8-2,.8-1.1-.2-1.5-.5-.7-.8-.7-1.5h.8Z"/>
    </g>
    <line class="st7" x1="70.5" y1="267.1" x2="64.5" y2="267.1"/>
    <g class="st11">
      <path d="M46.2,269.3c0,.5.3.8.7,1s.4.1.7.1c.5,0,.9-.2,1.2-.5s.4-.7.4-1.1,0-.9-.4-1.1-.7-.4-1.1-.4-.6.1-.8.2-.4.3-.6.5h-.8l.5-3.8h3.6v.8h-3l-.3,1.9c.2-.1.3-.2.5-.3.3-.1.6-.2.9-.2.6,0,1.2.2,1.6.6s.7.9.7,1.6-.2,1.2-.6,1.7-1.1.8-2,.8-1.1-.2-1.5-.5-.7-.8-.7-1.5h1v.2Z"/>
      <path d="M55.2,265.2c.3.6.5,1.4.5,2.4s0,1.7-.4,2.4c-.4.9-1.1,1.3-2,1.3s-1.5-.4-1.9-1.1c-.3-.6-.5-1.4-.5-2.5s0-1.5.3-2c.4-1.1,1.1-1.6,2.1-1.6.8,0,1.5.4,1.9,1.1ZM54.3,269.9c.3-.4.4-1.2.4-2.3s0-1.4-.3-2c-.2-.5-.6-.8-1.1-.8s-.9.2-1.1.7c-.2.5-.4,1.2-.4,2.2s0,1.3.2,1.7c.2.7.6,1,1.2,1,.5,0,.8-.1,1.1-.5Z"/>
    </g>
    <line class="st7" x1="70.5" y1="227.1" x2="64.5" y2="227.1"/>
    <g class="st11">
      <path d="M46.2,229.3c0,.5.3.8.7,1,.2.1.4.1.7.1.5,0,.9-.2,1.2-.5s.4-.7.4-1.1,0-.9-.4-1.1-.7-.4-1.1-.4-.6.1-.8.2-.4.3-.6.5h-.8l.5-3.8h3.6v.8h-3l-.3,1.9c.2-.1.3-.2.5-.3.3-.1.6-.2.9-.2.6,0,1.2.2,1.6.6s.7.9.7,1.6-.2,1.2-.6,1.7-1.1.8-2,.8-1.1-.2-1.5-.5-.7-.8-.7-1.5h1v.2Z"/>
      <path d="M51.7,229.3c0,.5.3.8.7,1,.2.1.4.1.7.1.5,0,.9-.2,1.2-.5s.4-.7.4-1.1,0-.9-.4-1.1-.7-.4-1.1-.4-.6.1-.8.2-.4.3-.6.5h-.8l.5-3.8h3.6v.8h-3v2c0-.1.2-.2.4-.3.3-.1.6-.2.9-.2.6,0,1.2.2,1.6.6s.7.9.7,1.6-.2,1.2-.6,1.7-1.1.8-2,.8-1.1-.2-1.5-.5-.7-.8-.7-1.5h.8Z"/>
    </g>
    <line class="st7" x1="70.5" y1="187.1" x2="64.5" y2="187.1"/>
    <g class="st11">
      <path d="M49.5,184.7c.3.4.5.8.5,1.3h-.9c0-.3,0-.5-.2-.6-.2-.3-.5-.4-1-.4s-.9.2-1.2.7-.5,1.1-.5,2c.2-.3.5-.5.8-.7.3-.1.6-.2.9-.2.6,0,1.1.2,1.5.6s.7.9.7,1.7-.2,1.2-.6,1.7c-.4.5-1,.7-1.8.7s-1.2-.2-1.7-.7-.7-1.3-.7-2.5,0-1.6.3-2.2c.4-1.2,1.2-1.7,2.2-1.7.9-.3,1.4-.1,1.7.3ZM48.8,190c.2-.3.3-.7.3-1.1s0-.7-.3-1-.6-.5-1.1-.5-.7.1-1,.4-.4.6-.4,1.1,0,.8.4,1.1c.3.3.6.5,1.1.5s.8-.2,1-.5Z"/>
      <path d="M55.2,185.2c.3.6.5,1.4.5,2.4s0,1.7-.4,2.4c-.4.9-1.1,1.3-2,1.3s-1.5-.4-1.9-1.1c-.3-.6-.5-1.4-.5-2.5s0-1.5.3-2c.4-1.1,1.1-1.6,2.1-1.6.8,0,1.5.4,1.9,1.1ZM54.3,189.9c.3-.4.4-1.2.4-2.3s0-1.4-.3-2c-.2-.5-.6-.8-1.1-.8s-.9.2-1.1.7c-.2.5-.4,1.2-.4,2.2s0,1.3.2,1.7c.2.7.6,1,1.2,1,.5.1.8,0,1.1-.5Z"/>
    </g>
    <line class="st7" x1="70.5" y1="147.1" x2="64.5" y2="147.1"/>
    <g class="st11">
      <path d="M49.5,144.7c.3.4.5.8.5,1.3h-.9c0-.3,0-.5-.2-.6-.2-.3-.5-.4-1-.4s-.9.2-1.2.7-.5,1.1-.5,2c.2-.3.5-.5.8-.7.3-.1.6-.2.9-.2.6,0,1.1.2,1.5.6s.7.9.7,1.7-.2,1.2-.6,1.7c-.4.5-1,.7-1.8.7s-1.2-.2-1.7-.7-.7-1.3-.7-2.5,0-1.6.3-2.2c.4-1.2,1.2-1.7,2.2-1.7.9-.3,1.4-.1,1.7.3ZM48.8,150c.2-.3.3-.7.3-1.1s0-.7-.3-1-.6-.5-1.1-.5-.7.1-1,.4-.4.6-.4,1.1,0,.8.4,1.1c.3.3.6.5,1.1.5s.8-.2,1-.5Z"/>
      <path d="M51.7,149.3c0,.5.3.8.7,1,.2.1.4.1.7.1.5,0,.9-.2,1.2-.5s.4-.7.4-1.1,0-.9-.4-1.1-.7-.4-1.1-.4-.6.1-.8.2-.4.3-.6.5h-.8l.5-3.8h3.6v.8h-3v2c0-.1.2-.2.4-.3.3-.1.6-.2.9-.2.6,0,1.2.2,1.6.6s.7.9.7,1.6-.2,1.2-.6,1.7-1.1.8-2,.8-1.1-.2-1.5-.5-.7-.8-.7-1.5h.8Z"/>
    </g>
    <line class="st7" x1="70.5" y1="107.1" x2="64.5" y2="107.1"/>
    <g class="st11">
      <path d="M50.2,104.2v.8c-.2.2-.5.6-.9,1.1s-.7,1.1-1,1.7-.5,1.2-.6,1.7c0,.3-.2.8-.4,1.6h-1c.2-1.3.7-2.7,1.5-4,.4-.8.9-1.4,1.4-2h-3.9v-.9s4.9,0,4.9,0Z"/>
      <path d="M55.2,105.2c.3.6.5,1.4.5,2.4s0,1.7-.4,2.4c-.4.9-1.1,1.3-2,1.3s-1.5-.4-1.9-1.1c-.3-.6-.5-1.4-.5-2.5s0-1.5.3-2c.4-1.1,1.1-1.6,2.1-1.6.8,0,1.5.4,1.9,1.1ZM54.3,109.9c.3-.4.4-1.2.4-2.3s0-1.4-.3-2c-.2-.5-.6-.8-1.1-.8s-.9.2-1.1.7c-.2.5-.4,1.2-.4,2.2s0,1.3.2,1.7c.2.7.6,1,1.2,1,.5.1.8,0,1.1-.5Z"/>
    </g>
    <g class="st11">
      <path class="st8" d="M830.9,667.2l1.7-.2c0,.6.3,1,.6,1.2s.7.4,1.3.4,1,0,1.3-.4.4-.5.4-.8,0-.4-.2-.5-.3-.3-.6-.4c-.2,0-.7-.2-1.4-.4-.9-.2-1.6-.5-2-.8-.5-.5-.8-1-.8-1.7s0-.8.4-1.2.6-.7,1.1-.9,1-.3,1.7-.3c1.1,0,1.9.2,2.4.7s.8,1.1.9,1.9h-1.7c0-.3-.2-.7-.5-.9s-.6-.3-1.1-.3-.9,0-1.2.3c-.2,0-.3.3-.3.5s0,.4.3.5c.2.2.8.4,1.6.6s1.5.4,1.9.6.7.5.9.9.3.8.3,1.4,0,1-.4,1.4-.7.7-1.2,1-1.1.3-1.9.3-1.9-.3-2.5-.8-.9-1.1-1-2.1Z"/>
      <path class="st8" d="M842.9,668l1.6.3c-.2.6-.5,1.1-1,1.4s-1,.5-1.7.5c-1.1,0-1.9-.4-2.4-1.1-.4-.6-.6-1.3-.6-2.1s.3-1.8.8-2.4,1.2-.9,2-.9,1.7.3,2.2.9.8,1.5.8,2.8h-4.1c0,.5,0,.9.4,1.1s.6.4.9.4.5,0,.7-.2.3-.4.4-.7ZM843,666.4c0-.5,0-.8-.4-1.1s-.5-.4-.9-.4-.7,0-.9.4-.3.6-.3,1.1h2.5Z"/>
      <path class="st8" d="M845.9,663.8h1.5v.8c.5-.7,1.2-1,1.9-1s.7,0,1,.2.5.4.7.7c.3-.3.6-.6.9-.7s.7-.2,1-.2c.5,0,.8,0,1.2.3s.6.5.7.8c0,.3.2.7.2,1.3v4h-1.6v-3.6c0-.6,0-1-.2-1.2-.2-.2-.4-.4-.7-.4s-.4,0-.7.2-.3.3-.4.6,0,.7,0,1.3v3h-1.6v-3.4c0-.6,0-1,0-1.2s0-.3-.3-.4-.3,0-.5,0c-.3,0-.5,0-.7.2s-.3.3-.4.6,0,.7,0,1.3v3h-1.6v-6.1h-.1Z"/>
      <path class="st8" d="M860.3,668l1.6.3c-.2.6-.5,1.1-1,1.4s-1,.5-1.7.5c-1.1,0-1.9-.4-2.4-1.1-.4-.6-.6-1.3-.6-2.1s.3-1.8.8-2.4,1.2-.9,2-.9,1.7.3,2.2.9.8,1.5.8,2.8h-4.1c0,.5,0,.9.4,1.1s.6.4.9.4.5,0,.7-.2.3-.4.4-.7ZM860.4,666.4c0-.5,0-.8-.4-1.1s-.5-.4-.9-.4-.7,0-.9.4-.3.6-.3,1.1h2.5Z"/>
      <path class="st8" d="M862.8,668.2l1.7-.3c0,.3.2.6.4.7s.5.2.9.2.7,0,1-.2c0,0,.2-.3.2-.4s0-.2,0-.3-.3-.2-.6-.2c-1.3-.3-2.2-.6-2.5-.8-.5-.3-.7-.8-.7-1.4s.2-1,.6-1.4,1.1-.6,2-.6,1.5,0,1.9.4.7.7.9,1.2l-1.6.3c0-.2-.2-.4-.4-.6s-.5-.2-.8-.2-.7,0-.9.2c0,0-.2.2-.2.3s0,.2.2.3c0,0,.7.3,1.5.5s1.5.4,1.8.7.5.7.5,1.2-.2,1.1-.7,1.5-1.2.6-2.1.6-1.5-.2-2-.5-.9-.6-1-1.2Z"/>
      <path class="st8" d="M872.9,663.8v1.3h-1.1v3.4c0,.1,0,.2,0,.2,0,0,.2,0,.3,0,.2,0,.4,0,.7-.2v1.3c-.3.2-.7.2-1.2.2s-.6,0-.8,0-.4-.2-.5-.4-.2-.4-.2-.6,0-.6,0-1.2v-2.7h-.8v-1.3h.8v-1.2l1.7-1v2.2h1.1Z"/>
      <path class="st8" d="M875.6,670h-1.6v-6.2h1.5v.9c.3-.4.5-.7.7-.8s.4-.2.7-.2.7,0,1.1.3l-.5,1.4c-.3-.2-.5-.3-.8-.3s-.4,0-.6.2-.3.4-.4.7,0,1,0,2.1v1.9h0Z"/>
      <path class="st8" d="M882.3,668l1.6.3c-.2.6-.5,1.1-1,1.4s-1,.5-1.7.5c-1.1,0-1.9-.4-2.4-1.1-.4-.6-.6-1.3-.6-2.1s.3-1.8.8-2.4,1.2-.9,2-.9,1.7.3,2.2.9.8,1.5.8,2.8h-4.1c0,.5,0,.9.4,1.1s.6.4.9.4.5,0,.7-.2.3-.4.4-.7ZM882.4,666.4c0-.5,0-.8-.4-1.1s-.5-.4-.9-.4-.7,0-.9.4-.3.6-.3,1.1h2.5Z"/>
    </g>
    <g class="st11">
      <path class="st8" d="M85.6,110v-8.6h1.7v8.6h-1.7Z"/>
      <path class="st8" d="M94.7,110h-1.7v-3.2c0-.7,0-1.1,0-1.3s-.2-.4-.3-.5-.3-.2-.6-.2-.5,0-.8.2-.4.4-.5.6,0,.7,0,1.4v2.8h-1.6v-6.2h1.5v.9c.5-.7,1.2-1.1,2.1-1.1s.7,0,1,.2.5.3.7.5.3.4.3.7,0,.6,0,1.1v4.1Z"/>
      <path class="st8" d="M95.8,108.2l1.7-.3c0,.3.2.6.4.7s.5.2.9.2.7,0,1-.2c0,0,.2-.3.2-.4s0-.2,0-.3c0,0-.3-.2-.6-.2-1.3-.3-2.2-.6-2.5-.8-.5-.3-.7-.8-.7-1.4s.2-1,.6-1.4,1.1-.6,2-.6,1.5,0,1.9.4.7.7.9,1.2l-1.6.3c0-.2-.2-.4-.4-.6s-.5-.2-.8-.2-.7,0-.9.2c0,0-.2.2-.2.3s0,.2.2.3c0,0,.7.3,1.5.5s1.5.4,1.8.7c.3.3.5.7.5,1.2s-.2,1.1-.7,1.5-1.2.6-2.1.6-1.5-.2-2-.5-.9-.6-1-1.2Z"/>
      <path class="st8" d="M108.4,105.6l-1.6.3c0-.3-.2-.6-.4-.7s-.4-.2-.8-.2-.7,0-1,.4-.4.8-.4,1.4,0,1.3.4,1.6.6.5,1,.5.6,0,.8-.3.3-.5.4-.9l1.6.3c-.2.7-.5,1.3-1,1.7s-1.1.6-1.9.6-1.6-.3-2.2-.9-.8-1.4-.8-2.4.3-1.8.8-2.4,1.3-.9,2.2-.9,1.4.2,1.8.5.9.8,1.1,1.4Z"/>
      <path class="st8" d="M111.3,110h-1.6v-6.2h1.5v.9c.3-.4.5-.7.7-.8s.4-.2.7-.2.7,0,1.1.3l-.5,1.4c-.3-.2-.5-.3-.8-.3s-.4,0-.6.2-.3.4-.4.7,0,1,0,2.1c0,0,0,1.9,0,1.9Z"/>
      <path class="st8" d="M114.4,102.9v-1.5h1.6v1.5h-1.6ZM114.4,110v-6.2h1.6v6.2h-1.6Z"/>
      <path class="st8" d="M120.6,103.8v1.3h-1.1v3.4c0,0,0,.2,0,.2,0,0,.2,0,.3,0,.2,0,.4,0,.7-.2v1.3c-.3.2-.7.2-1.2.2s-.6,0-.8,0-.4-.2-.5-.4-.2-.4-.2-.6,0-.6,0-1.2v-2.7h-.8v-1.3h.8v-1.2l1.7-1v2.2s1.1,0,1.1,0Z"/>
      <path class="st8" d="M125.3,108l1.6.3c-.2.6-.5,1.1-1,1.4s-1,.5-1.7.5c-1.1,0-1.9-.4-2.4-1.1-.4-.6-.6-1.3-.6-2.1s.3-1.8.8-2.4,1.2-.9,2-.9,1.7.3,2.2.9.8,1.5.8,2.8h-4.1c0,.5,0,.9.4,1.1s.6.4.9.4.5,0,.7-.2.3-.4.4-.7ZM125.4,106.4c0-.5,0-.8-.4-1.1s-.5-.4-.9-.4-.7,0-.9.4-.3.6-.3,1.1h2.5Z"/>
      <path class="st8" d="M127.8,108.2l1.7-.3c.1.3.2.6.4.7s.5.2.9.2.7,0,1-.2c.1,0,.2-.3.2-.4s0-.2-.1-.3c-.1,0-.3-.2-.6-.2-1.3-.3-2.2-.6-2.5-.8-.5-.3-.7-.8-.7-1.4s.2-1,.6-1.4,1.1-.6,2-.6,1.5,0,1.9.4.7.7.9,1.2l-1.6.3c-.1-.2-.2-.4-.4-.6s-.5-.2-.8-.2-.7,0-.9.2c-.1,0-.2.2-.2.3s.1.2.2.3c.1,0,.7.3,1.5.5s1.5.4,1.8.7c.3.3.5.7.5,1.2s-.2,1.1-.7,1.5-1.2.6-2.1.6-1.5-.2-2-.5-.9-.6-1-1.2Z"/>
    </g>
    <g>
      <line class="st4" x1="171.5" y1="648" x2="178.6" y2="648"/>
      <line class="st4" x1="171.5" y1="660.7" x2="178.6" y2="660.7"/>
      <line class="st4" x1="272.5" y1="608.5" x2="279.6" y2="608.5"/>
      <line class="st4" x1="272.5" y1="648" x2="279.6" y2="648"/>
      <line class="st4" x1="373.5" y1="596.5" x2="380.6" y2="596.5"/>
      <line class="st4" x1="373.5" y1="637.5" x2="380.6" y2="637.5"/>
      <line class="st4" x1="474.5" y1="625.3" x2="481.6" y2="625.3"/>
      <line class="st4" x1="474.5" y1="560" x2="481.6" y2="560"/>
      <line class="st4" x1="474.5" y1="524" x2="481.6" y2="524"/>
      <line class="st4" x1="575.5" y1="565.2" x2="582.6" y2="565.2"/>
      <line class="st4" x1="575.5" y1="370" x2="582.6" y2="370"/>
      <line class="st4" x1="575.5" y1="255" x2="582.6" y2="255"/>
      <line class="st1" x1="676.5" y1="575.7" x2="683.6" y2="575.7"/>
      <line class="st4" x1="676.5" y1="442.9" x2="683.6" y2="442.9"/>
      <line class="st4" x1="676.5" y1="370" x2="683.6" y2="370"/>
      <line class="st4" x1="777.5" y1="279" x2="784.7" y2="279"/>
      <line class="st4" x1="777.5" y1="149" x2="784.7" y2="149"/>
      <line class="st4" x1="777.5" y1="531.1" x2="784.7" y2="531.1"/>
    </g>
  </g>
  <text class="st9" transform="translate(181.4 650.8)"><tspan x="0" y="0">1</tspan></text>
  <text class="st9" transform="translate(181.4 662.9)"><tspan x="0" y="0">2</tspan></text>
  <text class="st9" transform="translate(283 610.4)"><tspan x="0" y="0">5</tspan></text>
  <text class="st9" transform="translate(283 649.9)"><tspan x="0" y="0">8</tspan></text>
  <text class="st9" transform="translate(383 598.4)"><tspan x="0" y="0">4</tspan></text>
  <text class="st9" transform="translate(383 639.4)"><tspan x="0" y="0">7</tspan></text>
  <text class="st9" transform="translate(483.6 561.9)"><tspan x="0" y="0">5</tspan></text>
  <text class="st9" transform="translate(483.6 627.2)"><tspan x="0" y="0">11</tspan></text>
  <text class="st9" transform="translate(483.6 525.9)"><tspan x="0" y="0">4</tspan></text>
  <text class="st9" transform="translate(584.6 373)"><tspan x="0" y="0">23</tspan></text>
  <text class="st9" transform="translate(585.4 567.1)"><tspan x="0" y="0">25</tspan></text>
  <text class="st9" transform="translate(584.9 258.5)"><tspan x="0" y="0">7</tspan></text>
  <text class="st9" transform="translate(686.5 445)"><tspan x="0" y="0">14</tspan></text>
  <text class="st9" transform="translate(686.5 577.6)"><tspan x="0" y="0">21</tspan></text>
  <text class="st9" transform="translate(688.9 371.9)"><tspan x="0" y="0">4</tspan></text>
  <text class="st9" transform="translate(788.2 282.7)"><tspan x="0" y="0">27</tspan></text>
  <text class="st9" transform="translate(787.6 534.1)"><tspan x="0" y="0">34</tspan></text>
  <text class="st9" transform="translate(788.2 155.9)"><tspan x="0" y="0">8</tspan></text>
  <text/>
</svg>